<svg width="632" height="663" viewBox="0 0 632 663" fill="none" xmlns="http://www.w3.org/2000/svg">
<path d="M267.596 401.635V464.484H514.912V402.043L359.242 401.635L436.246 309.587H346.663L267.596 401.635Z" fill="white"/>
<path d="M605 155.371H357.015L357.18 216.796H515.653L436.248 309.586H525.296L605 216.796V155.371Z" fill="white"/>
<path d="M294.112 154.662H604.86V432.736C604.86 449.869 592.918 463.775 578.205 463.775H267.457V185.701C267.457 168.568 279.399 154.662 294.112 154.662Z" stroke="#083B51" stroke-width="0.6" stroke-miterlimit="10"/>
<path d="M567.739 463.969H1.87207" stroke="#083B51" stroke-width="0.8" stroke-miterlimit="10"/>
<path d="M604.548 308.806L218.556 308.806M1.91699 308.806L149.425 308.806" stroke="#083B51" stroke-width="0.8" stroke-miterlimit="10"/>
<path d="M604.859 154.609H1.87207" stroke="#083B51" stroke-width="0.8" stroke-miterlimit="10"/>
<path d="M590.538 316.379L604.913 299.632L619.295 316.379" fill="#C1D9E4"/>
<path d="M590.538 316.379L604.913 299.632L619.295 316.379" stroke="#083B51" stroke-width="0.6" stroke-miterlimit="10"/>
<path d="M281.894 299.632L267.512 316.379L253.137 299.632" fill="#C1D9E4"/>
<path d="M281.894 299.632L267.512 316.379L253.137 299.632" stroke="#083B51" stroke-width="0.6" stroke-miterlimit="10"/>
<path d="M448.273 172.111L433.897 155.372L448.273 138.625" stroke="#083B51" stroke-width="0.6" stroke-miterlimit="10"/>
<path d="M13.968 395.514L4.368 381.642V395.514H2.16V377.562H4.008L13.656 391.458V377.562H15.84V395.514H13.968ZM20.16 395.514V377.562H22.368V395.514H20.16ZM32.5316 395.514L24.9956 377.562H27.3956L33.4676 392.106L39.5156 377.562H41.9156L34.3796 395.514H32.5316ZM46.7664 379.506V385.29H54.6144V387.186H46.7664V393.57H55.6704V395.514H44.5584V377.562H55.6704V379.506H46.7664ZM69.993 393.57V395.514H58.785V377.562H60.993V393.57H69.993ZM81.0834 395.514V380.514L77.9154 382.938L76.8354 381.234L81.6354 377.562H83.2434V395.514H81.0834Z" fill="#083B51"/>
<path d="M152.004 379.79L161.126 370.668" stroke="#083B51" stroke-width="0.556252" stroke-miterlimit="10"/>
<path d="M161.428 373.574L160.872 373.559L160.975 370.815L158.231 370.919L158.209 370.355L161.546 370.236L161.428 373.574Z" fill="#083B51"/>
<path d="M154.596 393.794C154.644 394.67 154.932 395.36 155.46 395.864C155.988 396.368 156.66 396.62 157.476 396.62C158.148 396.62 158.706 396.476 159.15 396.188C159.594 395.9 159.894 395.498 160.05 394.982L161.598 395.072C161.406 395.912 160.938 396.608 160.194 397.16C159.45 397.7 158.556 397.97 157.512 397.97C156.168 397.97 155.07 397.544 154.218 396.692C153.378 395.828 152.958 394.664 152.958 393.2C152.958 391.736 153.378 390.578 154.218 389.726C155.058 388.874 156.144 388.448 157.476 388.448C158.784 388.448 159.81 388.856 160.554 389.672C161.31 390.488 161.688 391.58 161.688 392.948V393.794H154.596ZM157.458 389.798C156.642 389.798 155.97 390.038 155.442 390.518C154.926 390.986 154.644 391.658 154.596 392.534H160.14C160.116 391.706 159.876 391.046 159.42 390.554C158.964 390.05 158.31 389.798 157.458 389.798ZM167.031 388.466C168.015 388.454 168.795 388.706 169.371 389.222C169.947 389.726 170.289 390.392 170.397 391.22L168.849 391.31C168.729 390.29 168.105 389.786 166.977 389.798C166.413 389.786 165.981 389.9 165.681 390.14C165.381 390.38 165.231 390.71 165.231 391.13C165.231 391.238 165.237 391.334 165.249 391.418C165.273 391.502 165.309 391.58 165.357 391.652C165.405 391.724 165.447 391.79 165.483 391.85C165.531 391.898 165.603 391.946 165.699 391.994C165.807 392.042 165.891 392.084 165.951 392.12C166.023 392.144 166.125 392.174 166.257 392.21C166.401 392.246 166.515 392.276 166.599 392.3C166.683 392.312 166.815 392.342 166.995 392.39C167.175 392.426 167.313 392.456 167.409 392.48C168.501 392.744 169.305 393.062 169.821 393.434C170.337 393.806 170.595 394.37 170.595 395.126C170.595 396.026 170.283 396.728 169.659 397.232C169.035 397.724 168.189 397.97 167.121 397.97C166.089 397.97 165.255 397.73 164.619 397.25C163.983 396.758 163.605 396.068 163.485 395.18L165.033 395.072C165.177 396.104 165.885 396.62 167.157 396.62C167.733 396.62 168.189 396.506 168.525 396.278C168.873 396.038 169.047 395.696 169.047 395.252C169.047 394.808 168.891 394.496 168.579 394.316C168.279 394.124 167.679 393.92 166.779 393.704C166.335 393.596 165.993 393.512 165.753 393.452C165.513 393.38 165.237 393.278 164.925 393.146C164.613 393.014 164.379 392.87 164.223 392.714C164.079 392.546 163.947 392.33 163.827 392.066C163.719 391.802 163.665 391.496 163.665 391.148C163.665 390.332 163.959 389.678 164.547 389.186C165.147 388.694 165.975 388.454 167.031 388.466ZM177.093 388.448C178.185 388.448 179.109 388.76 179.865 389.384C180.633 389.996 181.083 390.83 181.215 391.886L179.703 392.012C179.619 391.328 179.337 390.788 178.857 390.392C178.377 389.984 177.789 389.78 177.093 389.78C176.217 389.78 175.509 390.086 174.969 390.698C174.429 391.298 174.159 392.132 174.159 393.2C174.159 394.268 174.429 395.108 174.969 395.72C175.521 396.32 176.229 396.62 177.093 396.62C177.813 396.62 178.401 396.434 178.857 396.062C179.325 395.69 179.613 395.18 179.721 394.532L181.233 394.676C181.065 395.696 180.609 396.5 179.865 397.088C179.121 397.676 178.197 397.97 177.093 397.97C175.773 397.97 174.687 397.544 173.835 396.692C172.995 395.84 172.575 394.676 172.575 393.2C172.575 391.724 172.995 390.566 173.835 389.726C174.675 388.874 175.761 388.448 177.093 388.448ZM185.987 397.97C185.075 397.97 184.343 397.742 183.791 397.286C183.251 396.818 182.981 396.176 182.981 395.36C182.981 394.472 183.269 393.818 183.845 393.398C184.433 392.966 185.267 392.654 186.347 392.462L188.723 392.048V391.616C188.723 391.088 188.555 390.656 188.219 390.32C187.895 389.984 187.421 389.816 186.797 389.816C186.329 389.816 185.909 389.942 185.537 390.194C185.177 390.434 184.931 390.758 184.799 391.166L183.521 390.356C183.797 389.756 184.223 389.288 184.799 388.952C185.387 388.616 186.047 388.448 186.779 388.448C187.907 388.448 188.771 388.76 189.371 389.384C189.983 389.996 190.289 390.872 190.289 392.012V397.79H188.723V396.71C188.015 397.55 187.103 397.97 185.987 397.97ZM186.221 396.638C186.977 396.638 187.583 396.434 188.039 396.026C188.507 395.606 188.741 394.964 188.741 394.1V393.38L186.545 393.704C185.213 393.908 184.547 394.448 184.547 395.324C184.547 396.2 185.105 396.638 186.221 396.638ZM193.349 397.79V383.804H194.897V397.79H193.349ZM200.437 397.97C199.525 397.97 198.793 397.742 198.241 397.286C197.701 396.818 197.431 396.176 197.431 395.36C197.431 394.472 197.719 393.818 198.295 393.398C198.883 392.966 199.717 392.654 200.797 392.462L203.173 392.048V391.616C203.173 391.088 203.005 390.656 202.669 390.32C202.345 389.984 201.871 389.816 201.247 389.816C200.779 389.816 200.359 389.942 199.987 390.194C199.627 390.434 199.381 390.758 199.249 391.166L197.971 390.356C198.247 389.756 198.673 389.288 199.249 388.952C199.837 388.616 200.497 388.448 201.229 388.448C202.357 388.448 203.221 388.76 203.821 389.384C204.433 389.996 204.739 390.872 204.739 392.012V397.79H203.173V396.71C202.465 397.55 201.553 397.97 200.437 397.97ZM200.671 396.638C201.427 396.638 202.033 396.434 202.489 396.026C202.957 395.606 203.191 394.964 203.191 394.1V393.38L200.995 393.704C199.663 393.908 198.997 394.448 198.997 395.324C198.997 396.2 199.555 396.638 200.671 396.638ZM207.618 397.79V388.61H212.028V389.888H209.13V397.79H207.618Z" fill="#083B51"/>
<path d="M13.968 240.828L4.368 226.956V240.828H2.16V222.876H4.008L13.656 236.772V222.876H15.84V240.828H13.968ZM20.16 240.828V222.876H22.368V240.828H20.16ZM32.5316 240.828L24.9956 222.876H27.3956L33.4676 237.42L39.5156 222.876H41.9156L34.3796 240.828H32.5316ZM46.7664 224.82V230.604H54.6144V232.5H46.7664V238.884H55.6704V240.828H44.5584V222.876H55.6704V224.82H46.7664ZM69.993 238.884V240.828H58.785V222.876H60.993V238.884H69.993ZM83.1234 222.66C84.7714 222.66 86.0434 223.108 86.9394 224.004C87.8354 224.884 88.2834 226.108 88.2834 227.676C88.2834 229.052 87.9874 230.284 87.3954 231.372C86.8034 232.444 85.9234 233.588 84.7554 234.804L80.8674 238.884H88.4994V240.828H77.8674V239.052L83.1234 233.508C84.2274 232.356 84.9954 231.388 85.4274 230.604C85.8594 229.804 86.0754 228.86 86.0754 227.772C86.0754 226.796 85.8194 226.028 85.3074 225.468C84.8114 224.892 84.0994 224.604 83.1714 224.604C82.1474 224.604 81.3634 224.916 80.8194 225.54C80.2914 226.164 80.0194 227.052 80.0034 228.204L77.8194 228.084C77.8514 226.372 78.3234 225.044 79.2354 224.1C80.1634 223.14 81.4594 222.66 83.1234 222.66Z" fill="#083B51"/>
<path d="M151.675 294.623H164.58" stroke="#083B51" stroke-width="0.556252" stroke-miterlimit="10"/>
<path d="M162.733 296.892L162.354 296.492L164.364 294.623L162.354 292.754L162.733 292.346L165.18 294.623L162.733 296.892Z" fill="#083B51"/>
<path d="M155.635 315.073C154.723 315.073 153.991 314.845 153.439 314.389C152.899 313.921 152.629 313.279 152.629 312.463C152.629 311.575 152.917 310.921 153.493 310.501C154.081 310.069 154.915 309.757 155.995 309.565L158.371 309.151V308.719C158.371 308.191 158.203 307.759 157.867 307.423C157.543 307.087 157.069 306.919 156.445 306.919C155.977 306.919 155.557 307.045 155.185 307.297C154.825 307.537 154.579 307.861 154.447 308.269L153.169 307.459C153.445 306.859 153.871 306.391 154.447 306.055C155.035 305.719 155.695 305.551 156.427 305.551C157.555 305.551 158.419 305.863 159.019 306.487C159.631 307.099 159.937 307.975 159.937 309.115V314.893H158.371V313.813C157.663 314.653 156.751 315.073 155.635 315.073ZM155.869 313.741C156.625 313.741 157.231 313.537 157.687 313.129C158.155 312.709 158.389 312.067 158.389 311.203V310.483L156.193 310.807C154.861 311.011 154.195 311.551 154.195 312.427C154.195 313.303 154.753 313.741 155.869 313.741ZM165.823 305.569C166.807 305.557 167.587 305.809 168.163 306.325C168.739 306.829 169.081 307.495 169.189 308.323L167.641 308.413C167.521 307.393 166.897 306.889 165.769 306.901C165.205 306.889 164.773 307.003 164.473 307.243C164.173 307.483 164.023 307.813 164.023 308.233C164.023 308.341 164.029 308.437 164.041 308.521C164.065 308.605 164.101 308.683 164.149 308.755C164.197 308.827 164.239 308.893 164.275 308.953C164.323 309.001 164.395 309.049 164.491 309.097C164.599 309.145 164.683 309.187 164.743 309.223C164.815 309.247 164.917 309.277 165.049 309.313C165.193 309.349 165.307 309.379 165.391 309.403C165.475 309.415 165.607 309.445 165.787 309.493C165.967 309.529 166.105 309.559 166.201 309.583C167.293 309.847 168.097 310.165 168.613 310.537C169.129 310.909 169.387 311.473 169.387 312.229C169.387 313.129 169.075 313.831 168.451 314.335C167.827 314.827 166.981 315.073 165.913 315.073C164.881 315.073 164.047 314.833 163.411 314.353C162.775 313.861 162.397 313.171 162.277 312.283L163.825 312.175C163.969 313.207 164.677 313.723 165.949 313.723C166.525 313.723 166.981 313.609 167.317 313.381C167.665 313.141 167.839 312.799 167.839 312.355C167.839 311.911 167.683 311.599 167.371 311.419C167.071 311.227 166.471 311.023 165.571 310.807C165.127 310.699 164.785 310.615 164.545 310.555C164.305 310.483 164.029 310.381 163.717 310.249C163.405 310.117 163.171 309.973 163.015 309.817C162.871 309.649 162.739 309.433 162.619 309.169C162.511 308.905 162.457 308.599 162.457 308.251C162.457 307.435 162.751 306.781 163.339 306.289C163.939 305.797 164.767 305.557 165.823 305.569ZM173.005 310.897C173.053 311.773 173.341 312.463 173.869 312.967C174.397 313.471 175.069 313.723 175.885 313.723C176.557 313.723 177.115 313.579 177.559 313.291C178.003 313.003 178.303 312.601 178.459 312.085L180.007 312.175C179.815 313.015 179.347 313.711 178.603 314.263C177.859 314.803 176.965 315.073 175.921 315.073C174.577 315.073 173.479 314.647 172.627 313.795C171.787 312.931 171.367 311.767 171.367 310.303C171.367 308.839 171.787 307.681 172.627 306.829C173.467 305.977 174.553 305.551 175.885 305.551C177.193 305.551 178.219 305.959 178.963 306.775C179.719 307.591 180.097 308.683 180.097 310.051V310.897H173.005ZM175.867 306.901C175.051 306.901 174.379 307.141 173.851 307.621C173.335 308.089 173.053 308.761 173.005 309.637H178.549C178.525 308.809 178.285 308.149 177.829 307.657C177.373 307.153 176.719 306.901 175.867 306.901ZM186.952 305.551C187.996 305.551 188.848 305.893 189.508 306.577C190.18 307.261 190.516 308.173 190.516 309.313V314.893H188.95V309.511C188.95 308.755 188.734 308.149 188.302 307.693C187.882 307.225 187.324 306.991 186.628 306.991C185.908 306.991 185.314 307.237 184.846 307.729C184.39 308.221 184.162 308.821 184.162 309.529V314.893H182.614V305.713H184.09V307.081C184.33 306.637 184.696 306.271 185.188 305.983C185.68 305.695 186.268 305.551 186.952 305.551ZM193.943 314.893L193.961 307.063H192.251V305.713H193.961L193.979 302.545H195.545L195.527 305.713H197.993V307.063H195.527L195.491 313.543H197.957V314.893H193.943ZM202.41 315.073C201.498 315.073 200.766 314.845 200.214 314.389C199.674 313.921 199.404 313.279 199.404 312.463C199.404 311.575 199.692 310.921 200.268 310.501C200.856 310.069 201.69 309.757 202.77 309.565L205.146 309.151V308.719C205.146 308.191 204.978 307.759 204.642 307.423C204.318 307.087 203.844 306.919 203.22 306.919C202.752 306.919 202.332 307.045 201.96 307.297C201.6 307.537 201.354 307.861 201.222 308.269L199.944 307.459C200.22 306.859 200.646 306.391 201.222 306.055C201.81 305.719 202.47 305.551 203.202 305.551C204.33 305.551 205.194 305.863 205.794 306.487C206.406 307.099 206.712 307.975 206.712 309.115V314.893H205.146V313.813C204.438 314.653 203.526 315.073 202.41 315.073ZM202.644 313.741C203.4 313.741 204.006 313.537 204.462 313.129C204.93 312.709 205.164 312.067 205.164 311.203V310.483L202.968 310.807C201.636 311.011 200.97 311.551 200.97 312.427C200.97 313.303 201.528 313.741 202.644 313.741ZM209.592 314.893V305.713H214.002V306.991H211.104V314.893H209.592Z" fill="#083B51"/>
<path d="M153 226.296L162.123 217.174" stroke="#083B51" stroke-width="0.556252" stroke-miterlimit="10"/>
<path d="M162.424 220.08L161.868 220.065L161.971 217.321L159.227 217.425L159.205 216.861L162.543 216.742L162.424 220.08Z" fill="#083B51"/>
<path d="M155.592 240.3C155.64 241.176 155.928 241.866 156.456 242.37C156.984 242.874 157.656 243.126 158.472 243.126C159.144 243.126 159.702 242.982 160.146 242.694C160.59 242.406 160.89 242.004 161.046 241.488L162.594 241.578C162.402 242.418 161.934 243.114 161.19 243.666C160.446 244.206 159.552 244.476 158.508 244.476C157.164 244.476 156.066 244.05 155.214 243.198C154.374 242.334 153.954 241.17 153.954 239.706C153.954 238.242 154.374 237.084 155.214 236.232C156.054 235.38 157.14 234.954 158.472 234.954C159.78 234.954 160.806 235.362 161.55 236.178C162.306 236.994 162.684 238.086 162.684 239.454V240.3H155.592ZM158.454 236.304C157.638 236.304 156.966 236.544 156.438 237.024C155.922 237.492 155.64 238.164 155.592 239.04H161.136C161.112 238.212 160.872 237.552 160.416 237.06C159.96 236.556 159.306 236.304 158.454 236.304ZM168.027 234.972C169.011 234.96 169.791 235.212 170.367 235.728C170.943 236.232 171.285 236.898 171.393 237.726L169.845 237.816C169.725 236.796 169.101 236.292 167.973 236.304C167.409 236.292 166.977 236.406 166.677 236.646C166.377 236.886 166.227 237.216 166.227 237.636C166.227 237.744 166.233 237.84 166.245 237.924C166.269 238.008 166.305 238.086 166.353 238.158C166.401 238.23 166.443 238.296 166.479 238.356C166.527 238.404 166.599 238.452 166.695 238.5C166.803 238.548 166.887 238.59 166.947 238.626C167.019 238.65 167.121 238.68 167.253 238.716C167.397 238.752 167.511 238.782 167.595 238.806C167.679 238.818 167.811 238.848 167.991 238.896C168.171 238.932 168.309 238.962 168.405 238.986C169.497 239.25 170.301 239.568 170.817 239.94C171.333 240.312 171.591 240.876 171.591 241.632C171.591 242.532 171.279 243.234 170.655 243.738C170.031 244.23 169.185 244.476 168.117 244.476C167.085 244.476 166.251 244.236 165.615 243.756C164.979 243.264 164.601 242.574 164.481 241.686L166.029 241.578C166.173 242.61 166.881 243.126 168.153 243.126C168.729 243.126 169.185 243.012 169.521 242.784C169.869 242.544 170.043 242.202 170.043 241.758C170.043 241.314 169.887 241.002 169.575 240.822C169.275 240.63 168.675 240.426 167.775 240.21C167.331 240.102 166.989 240.018 166.749 239.958C166.509 239.886 166.233 239.784 165.921 239.652C165.609 239.52 165.375 239.376 165.219 239.22C165.075 239.052 164.943 238.836 164.823 238.572C164.715 238.308 164.661 238.002 164.661 237.654C164.661 236.838 164.955 236.184 165.543 235.692C166.143 235.2 166.971 234.96 168.027 234.972ZM178.089 234.954C179.181 234.954 180.105 235.266 180.861 235.89C181.629 236.502 182.079 237.336 182.211 238.392L180.699 238.518C180.615 237.834 180.333 237.294 179.853 236.898C179.373 236.49 178.785 236.286 178.089 236.286C177.213 236.286 176.505 236.592 175.965 237.204C175.425 237.804 175.155 238.638 175.155 239.706C175.155 240.774 175.425 241.614 175.965 242.226C176.517 242.826 177.225 243.126 178.089 243.126C178.809 243.126 179.397 242.94 179.853 242.568C180.321 242.196 180.609 241.686 180.717 241.038L182.229 241.182C182.061 242.202 181.605 243.006 180.861 243.594C180.117 244.182 179.193 244.476 178.089 244.476C176.769 244.476 175.683 244.05 174.831 243.198C173.991 242.346 173.571 241.182 173.571 239.706C173.571 238.23 173.991 237.072 174.831 236.232C175.671 235.38 176.757 234.954 178.089 234.954ZM186.983 244.476C186.071 244.476 185.339 244.248 184.787 243.792C184.247 243.324 183.977 242.682 183.977 241.866C183.977 240.978 184.265 240.324 184.841 239.904C185.429 239.472 186.263 239.16 187.343 238.968L189.719 238.554V238.122C189.719 237.594 189.551 237.162 189.215 236.826C188.891 236.49 188.417 236.322 187.793 236.322C187.325 236.322 186.905 236.448 186.533 236.7C186.173 236.94 185.927 237.264 185.795 237.672L184.517 236.862C184.793 236.262 185.219 235.794 185.795 235.458C186.383 235.122 187.043 234.954 187.775 234.954C188.903 234.954 189.767 235.266 190.367 235.89C190.979 236.502 191.285 237.378 191.285 238.518V244.296H189.719V243.216C189.011 244.056 188.099 244.476 186.983 244.476ZM187.217 243.144C187.973 243.144 188.579 242.94 189.035 242.532C189.503 242.112 189.737 241.47 189.737 240.606V239.886L187.541 240.21C186.209 240.414 185.543 240.954 185.543 241.83C185.543 242.706 186.101 243.144 187.217 243.144ZM194.345 244.296V230.31H195.893V244.296H194.345ZM201.433 244.476C200.521 244.476 199.789 244.248 199.237 243.792C198.697 243.324 198.427 242.682 198.427 241.866C198.427 240.978 198.715 240.324 199.291 239.904C199.879 239.472 200.713 239.16 201.793 238.968L204.169 238.554V238.122C204.169 237.594 204.001 237.162 203.665 236.826C203.341 236.49 202.867 236.322 202.243 236.322C201.775 236.322 201.355 236.448 200.983 236.7C200.623 236.94 200.377 237.264 200.245 237.672L198.967 236.862C199.243 236.262 199.669 235.794 200.245 235.458C200.833 235.122 201.493 234.954 202.225 234.954C203.353 234.954 204.217 235.266 204.817 235.89C205.429 236.502 205.735 237.378 205.735 238.518V244.296H204.169V243.216C203.461 244.056 202.549 244.476 201.433 244.476ZM201.667 243.144C202.423 243.144 203.029 242.94 203.485 242.532C203.953 242.112 204.187 241.47 204.187 240.606V239.886L201.991 240.21C200.659 240.414 199.993 240.954 199.993 241.83C199.993 242.706 200.551 243.144 201.667 243.144ZM208.615 244.296V235.116H213.025V236.394H210.127V244.296H208.615Z" fill="#083B51"/>
<path d="M13.968 86L4.368 72.128V86H2.16V68.048H4.008L13.656 81.944V68.048H15.84V86H13.968ZM20.16 86V68.048H22.368V86H20.16ZM32.5316 86L24.9956 68.048H27.3956L33.4676 82.592L39.5156 68.048H41.9156L34.3796 86H32.5316ZM46.7664 69.992V75.776H54.6144V77.672H46.7664V84.056H55.6704V86H44.5584V68.048H55.6704V69.992H46.7664ZM69.993 84.056V86H58.785V68.048H60.993V84.056H69.993ZM83.1474 67.808C84.7474 67.808 86.0034 68.256 86.9154 69.152C87.8434 70.032 88.3074 71.224 88.3074 72.728C88.3074 73.736 88.0674 74.584 87.5874 75.272C87.1074 75.944 86.4914 76.424 85.7394 76.712C86.6354 76.92 87.3634 77.392 87.9234 78.128C88.4834 78.864 88.7634 79.8 88.7634 80.936C88.7634 82.552 88.2514 83.84 87.2274 84.8C86.2194 85.76 84.8754 86.24 83.1954 86.24C81.4674 86.24 80.1154 85.776 79.1394 84.848C78.1794 83.904 77.6434 82.608 77.5314 80.96L79.7394 80.84C79.8354 81.944 80.1714 82.792 80.7474 83.384C81.3394 83.976 82.1554 84.272 83.1954 84.272C84.2354 84.272 85.0514 83.976 85.6434 83.384C86.2514 82.776 86.5554 81.944 86.5554 80.888C86.5554 79.848 86.2274 79.056 85.5714 78.512C84.9314 77.968 84.0754 77.696 83.0034 77.696H81.2514V75.752H82.9554C83.8834 75.752 84.6354 75.48 85.2114 74.936C85.8034 74.392 86.0994 73.656 86.0994 72.728C86.0994 71.784 85.8354 71.056 85.3074 70.544C84.7794 70.032 84.0594 69.776 83.1474 69.776C82.2034 69.776 81.4594 70.056 80.9154 70.616C80.3714 71.176 80.0594 71.976 79.9794 73.016L77.8194 72.896C77.8834 71.312 78.3794 70.072 79.3074 69.176C80.2354 68.264 81.5154 67.808 83.1474 67.808Z" fill="#083B51"/>
<path d="M153.384 70.6909L162.506 61.5684" stroke="#083B51" stroke-width="0.556252" stroke-miterlimit="10"/>
<path d="M162.808 64.4742L162.251 64.4594L162.355 61.7152L159.611 61.8191L159.589 61.2554L162.926 61.1367L162.808 64.4742Z" fill="#083B51"/>
<path d="M154.95 88.6914V74.7054H156.498V88.6914H154.95ZM159.715 75.4794C159.919 75.2754 160.159 75.1734 160.435 75.1734C160.711 75.1734 160.951 75.2754 161.155 75.4794C161.359 75.6714 161.461 75.9114 161.461 76.1994C161.461 76.4754 161.359 76.7154 161.155 76.9194C160.951 77.1114 160.711 77.2074 160.435 77.2074C160.147 77.2074 159.901 77.1114 159.697 76.9194C159.505 76.7154 159.409 76.4754 159.409 76.1994C159.409 75.9114 159.511 75.6714 159.715 75.4794ZM159.643 88.6914V79.5114H161.191V88.6914H159.643ZM165.885 80.8974C166.161 80.4294 166.575 80.0574 167.127 79.7814C167.679 79.4934 168.327 79.3494 169.071 79.3494C170.355 79.3494 171.411 79.7814 172.239 80.6454C173.079 81.5094 173.499 82.6674 173.499 84.1194C173.499 85.5714 173.079 86.7294 172.239 87.5934C171.411 88.4454 170.355 88.8714 169.071 88.8714C168.303 88.8714 167.637 88.7214 167.073 88.4214C166.509 88.1094 166.089 87.7014 165.813 87.1974V88.6914H164.337V74.7054H165.885V80.8974ZM168.837 80.6994C167.961 80.6994 167.253 80.9694 166.713 81.5094C166.173 82.0494 165.903 82.8234 165.903 83.8314V84.3714C165.903 85.3794 166.173 86.1594 166.713 86.7114C167.253 87.2514 167.961 87.5214 168.837 87.5214C169.737 87.5214 170.475 87.2214 171.051 86.6214C171.627 86.0214 171.915 85.1814 171.915 84.1014C171.915 83.0334 171.627 82.1994 171.051 81.5994C170.475 80.9994 169.737 80.6994 168.837 80.6994ZM177.052 84.6954C177.1 85.5714 177.388 86.2614 177.916 86.7654C178.444 87.2694 179.116 87.5214 179.932 87.5214C180.604 87.5214 181.162 87.3774 181.606 87.0894C182.05 86.8014 182.35 86.3994 182.506 85.8834L184.054 85.9734C183.862 86.8134 183.394 87.5094 182.65 88.0614C181.906 88.6014 181.012 88.8714 179.968 88.8714C178.624 88.8714 177.526 88.4454 176.674 87.5934C175.834 86.7294 175.414 85.5654 175.414 84.1014C175.414 82.6374 175.834 81.4794 176.674 80.6274C177.514 79.7754 178.6 79.3494 179.932 79.3494C181.24 79.3494 182.266 79.7574 183.01 80.5734C183.766 81.3894 184.144 82.4814 184.144 83.8494V84.6954H177.052ZM179.914 80.6994C179.098 80.6994 178.426 80.9394 177.898 81.4194C177.382 81.8874 177.1 82.5594 177.052 83.4354H182.596C182.572 82.6074 182.332 81.9474 181.876 81.4554C181.42 80.9514 180.766 80.6994 179.914 80.6994ZM186.481 88.6914V79.5114H190.891V80.7894H187.993V88.6914H186.481ZM193.402 88.6914L193.42 80.8614H191.71V79.5114H193.42L193.438 76.3434H195.004L194.986 79.5114H197.452V80.8614H194.986L194.95 87.3414H197.416V88.6914H193.402ZM201.869 88.8714C200.957 88.8714 200.225 88.6434 199.673 88.1874C199.133 87.7194 198.863 87.0774 198.863 86.2614C198.863 85.3734 199.151 84.7194 199.727 84.2994C200.315 83.8674 201.149 83.5554 202.229 83.3634L204.605 82.9494V82.5174C204.605 81.9894 204.437 81.5574 204.101 81.2214C203.777 80.8854 203.303 80.7174 202.679 80.7174C202.211 80.7174 201.791 80.8434 201.419 81.0954C201.059 81.3354 200.813 81.6594 200.681 82.0674L199.403 81.2574C199.679 80.6574 200.105 80.1894 200.681 79.8534C201.269 79.5174 201.929 79.3494 202.661 79.3494C203.789 79.3494 204.653 79.6614 205.253 80.2854C205.865 80.8974 206.171 81.7734 206.171 82.9134V88.6914H204.605V87.6114C203.897 88.4514 202.985 88.8714 201.869 88.8714ZM202.103 87.5394C202.859 87.5394 203.465 87.3354 203.921 86.9274C204.389 86.5074 204.623 85.8654 204.623 85.0014V84.2814L202.427 84.6054C201.095 84.8094 200.429 85.3494 200.429 86.2254C200.429 87.1014 200.987 87.5394 202.103 87.5394ZM216.305 88.6914V87.1974C216.029 87.6894 215.603 88.0914 215.027 88.4034C214.463 88.7154 213.803 88.8714 213.047 88.8714C211.763 88.8714 210.701 88.4454 209.861 87.5934C209.033 86.7294 208.619 85.5714 208.619 84.1194C208.619 82.6674 209.033 81.5094 209.861 80.6454C210.701 79.7814 211.763 79.3494 213.047 79.3494C213.791 79.3494 214.439 79.4934 214.991 79.7814C215.543 80.0694 215.951 80.4414 216.215 80.8974V74.7054H217.763V88.6914H216.305ZM213.263 80.6994C212.363 80.6994 211.625 80.9994 211.049 81.5994C210.473 82.1994 210.185 83.0334 210.185 84.1014C210.185 85.1814 210.473 86.0214 211.049 86.6214C211.625 87.2214 212.363 87.5214 213.263 87.5214C214.139 87.5214 214.847 87.2514 215.387 86.7114C215.939 86.1594 216.215 85.3794 216.215 84.3714V83.8314C216.215 82.8234 215.939 82.0494 215.387 81.5094C214.847 80.9694 214.139 80.6994 213.263 80.6994Z" fill="#083B51"/>
<path d="M386.92 549.357H350V483H416.35V519.794L386.92 549.357Z" fill="#FE7756"/>
<path d="M432.385 567L426.733 553.536H428.533L433.087 564.444L437.623 553.536H439.423L433.771 567H432.385ZM446.784 567V565.632C446.592 566.052 446.262 566.418 445.794 566.73C445.326 567.03 444.738 567.18 444.03 567.18C443.01 567.18 442.194 566.844 441.582 566.172C440.982 565.488 440.682 564.594 440.682 563.49V557.82H442.23V563.274C442.23 564.03 442.416 564.63 442.788 565.074C443.172 565.506 443.706 565.722 444.39 565.722C445.098 565.722 445.662 565.476 446.082 564.984C446.502 564.492 446.712 563.892 446.712 563.184V557.82H448.26V567H446.784ZM452.414 563.004C452.462 563.88 452.75 564.57 453.278 565.074C453.806 565.578 454.478 565.83 455.294 565.83C455.966 565.83 456.524 565.686 456.968 565.398C457.412 565.11 457.712 564.708 457.868 564.192L459.416 564.282C459.224 565.122 458.756 565.818 458.012 566.37C457.268 566.91 456.374 567.18 455.33 567.18C453.986 567.18 452.888 566.754 452.036 565.902C451.196 565.038 450.776 563.874 450.776 562.41C450.776 560.946 451.196 559.788 452.036 558.936C452.876 558.084 453.962 557.658 455.294 557.658C456.602 557.658 457.628 558.066 458.372 558.882C459.128 559.698 459.506 560.79 459.506 562.158V563.004H452.414ZM455.276 559.008C454.46 559.008 453.788 559.248 453.26 559.728C452.744 560.196 452.462 560.868 452.414 561.744H457.958C457.934 560.916 457.694 560.256 457.238 559.764C456.782 559.26 456.128 559.008 455.276 559.008ZM462.023 567V553.014H463.571V567H462.023ZM469.11 567.18C468.198 567.18 467.466 566.952 466.914 566.496C466.374 566.028 466.104 565.386 466.104 564.57C466.104 563.682 466.392 563.028 466.968 562.608C467.556 562.176 468.39 561.864 469.47 561.672L471.846 561.258V560.826C471.846 560.298 471.678 559.866 471.342 559.53C471.018 559.194 470.544 559.026 469.92 559.026C469.452 559.026 469.032 559.152 468.66 559.404C468.3 559.644 468.054 559.968 467.922 560.376L466.644 559.566C466.92 558.966 467.346 558.498 467.922 558.162C468.51 557.826 469.17 557.658 469.902 557.658C471.03 557.658 471.894 557.97 472.494 558.594C473.106 559.206 473.412 560.082 473.412 561.222V567H471.846V565.92C471.138 566.76 470.226 567.18 469.11 567.18ZM469.344 565.848C470.1 565.848 470.706 565.644 471.162 565.236C471.63 564.816 471.864 564.174 471.864 563.31V562.59L469.668 562.914C468.336 563.118 467.67 563.658 467.67 564.534C467.67 565.41 468.228 565.848 469.344 565.848ZM483.155 567.18C482.243 567.18 481.511 566.952 480.959 566.496C480.419 566.028 480.149 565.386 480.149 564.57C480.149 563.682 480.437 563.028 481.013 562.608C481.601 562.176 482.435 561.864 483.515 561.672L485.891 561.258V560.826C485.891 560.298 485.723 559.866 485.387 559.53C485.063 559.194 484.589 559.026 483.965 559.026C483.497 559.026 483.077 559.152 482.705 559.404C482.345 559.644 482.099 559.968 481.967 560.376L480.689 559.566C480.965 558.966 481.391 558.498 481.967 558.162C482.555 557.826 483.215 557.658 483.947 557.658C485.075 557.658 485.939 557.97 486.539 558.594C487.151 559.206 487.457 560.082 487.457 561.222V567H485.891V565.92C485.183 566.76 484.271 567.18 483.155 567.18ZM483.389 565.848C484.145 565.848 484.751 565.644 485.207 565.236C485.675 564.816 485.909 564.174 485.909 563.31V562.59L483.713 562.914C482.381 563.118 481.715 563.658 481.715 564.534C481.715 565.41 482.273 565.848 483.389 565.848ZM490.517 567V553.014H492.065V567H490.517ZM504.234 557.658C505.518 557.658 506.574 558.09 507.402 558.954C508.242 559.806 508.662 560.958 508.662 562.41C508.662 563.862 508.242 565.02 507.402 565.884C506.574 566.748 505.518 567.18 504.234 567.18C503.49 567.18 502.842 567.042 502.29 566.766C501.738 566.478 501.324 566.1 501.048 565.632V571.59H499.5V557.82H500.976V559.332C501.252 558.828 501.672 558.426 502.236 558.126C502.8 557.814 503.466 557.658 504.234 557.658ZM504 559.008C503.124 559.008 502.416 559.284 501.876 559.836C501.336 560.376 501.066 561.15 501.066 562.158V562.698C501.066 563.694 501.336 564.468 501.876 565.02C502.416 565.56 503.124 565.83 504 565.83C504.9 565.83 505.638 565.53 506.214 564.93C506.79 564.33 507.078 563.496 507.078 562.428C507.078 561.348 506.79 560.508 506.214 559.908C505.638 559.308 504.9 559.008 504 559.008ZM517.219 567V565.632C517.027 566.052 516.697 566.418 516.229 566.73C515.761 567.03 515.173 567.18 514.465 567.18C513.445 567.18 512.629 566.844 512.017 566.172C511.417 565.488 511.117 564.594 511.117 563.49V557.82H512.665V563.274C512.665 564.03 512.851 564.63 513.223 565.074C513.607 565.506 514.141 565.722 514.825 565.722C515.533 565.722 516.097 565.476 516.517 564.984C516.937 564.492 517.147 563.892 517.147 563.184V557.82H518.695V567H517.219ZM526.162 557.658C527.206 557.658 528.058 558 528.718 558.684C529.39 559.368 529.726 560.28 529.726 561.42V567H528.16V561.618C528.16 560.862 527.944 560.256 527.512 559.8C527.092 559.332 526.534 559.098 525.838 559.098C525.118 559.098 524.524 559.344 524.056 559.836C523.6 560.328 523.372 560.928 523.372 561.636V567H521.824V557.82H523.3V559.188C523.54 558.744 523.906 558.378 524.398 558.09C524.89 557.802 525.478 557.658 526.162 557.658ZM533.153 567L533.171 559.17H531.461V557.82H533.171L533.189 554.652H534.755L534.737 557.82H537.203V559.17H534.737L534.701 565.65H537.167V567H533.153ZM539.946 558.972C540.846 558.096 541.974 557.658 543.33 557.658C544.686 557.658 545.808 558.096 546.696 558.972C547.596 559.836 548.046 560.982 548.046 562.41C548.046 563.838 547.596 564.99 546.696 565.866C545.808 566.742 544.686 567.18 543.33 567.18C541.974 567.18 540.846 566.742 539.946 565.866C539.058 564.99 538.614 563.838 538.614 562.41C538.614 560.982 539.058 559.836 539.946 558.972ZM545.58 559.926C544.992 559.314 544.242 559.008 543.33 559.008C542.418 559.008 541.662 559.314 541.062 559.926C540.474 560.538 540.18 561.366 540.18 562.41C540.18 563.454 540.474 564.288 541.062 564.912C541.662 565.524 542.418 565.83 543.33 565.83C544.242 565.83 544.992 565.524 545.58 564.912C546.18 564.288 546.48 563.454 546.48 562.41C546.48 561.366 546.18 560.538 545.58 559.926ZM565.221 557.658C566.241 557.658 567.063 558.006 567.687 558.702C568.323 559.386 568.641 560.286 568.641 561.402V567H567.093V561.618C567.093 560.85 566.889 560.238 566.481 559.782C566.085 559.326 565.545 559.098 564.861 559.098C564.213 559.098 563.679 559.308 563.259 559.728C562.851 560.136 562.617 560.664 562.557 561.312V567H560.991V561.618C560.991 560.862 560.787 560.256 560.379 559.8C559.983 559.332 559.461 559.098 558.813 559.098C558.105 559.098 557.529 559.344 557.085 559.836C556.641 560.328 556.419 560.928 556.419 561.636V567H554.871V557.82H556.347V559.206C556.875 558.174 557.805 557.658 559.137 557.658C559.809 557.658 560.409 557.82 560.937 558.144C561.465 558.456 561.867 558.9 562.143 559.476C562.419 558.924 562.821 558.486 563.349 558.162C563.889 557.826 564.513 557.658 565.221 557.658ZM574.447 556.29L576.301 552.852H578.065L575.689 556.29H574.447ZM574.879 557.658C576.007 557.658 576.871 557.97 577.471 558.594C578.083 559.206 578.389 560.082 578.389 561.222V567H576.823V565.92C576.115 566.76 575.203 567.18 574.087 567.18C573.175 567.18 572.443 566.952 571.891 566.496C571.351 566.028 571.081 565.386 571.081 564.57C571.081 563.682 571.369 563.028 571.945 562.608C572.533 562.176 573.367 561.864 574.447 561.672L576.823 561.258V560.826C576.823 560.298 576.655 559.866 576.319 559.53C575.995 559.194 575.521 559.026 574.897 559.026C574.429 559.026 574.009 559.152 573.637 559.404C573.277 559.644 573.031 559.968 572.899 560.376L571.621 559.566C571.897 558.966 572.323 558.498 572.899 558.162C573.487 557.826 574.147 557.658 574.879 557.658ZM574.645 562.914C573.313 563.118 572.647 563.658 572.647 564.534C572.647 565.41 573.205 565.848 574.321 565.848C575.077 565.848 575.683 565.644 576.139 565.236C576.607 564.816 576.841 564.174 576.841 563.31V562.59L574.645 562.914ZM584.275 557.676C585.259 557.664 586.039 557.916 586.615 558.432C587.191 558.936 587.533 559.602 587.641 560.43L586.093 560.52C585.973 559.5 585.349 558.996 584.221 559.008C583.657 558.996 583.225 559.11 582.925 559.35C582.625 559.59 582.475 559.92 582.475 560.34C582.475 560.448 582.481 560.544 582.493 560.628C582.517 560.712 582.553 560.79 582.601 560.862C582.649 560.934 582.691 561 582.727 561.06C582.775 561.108 582.847 561.156 582.943 561.204C583.051 561.252 583.135 561.294 583.195 561.33C583.267 561.354 583.369 561.384 583.501 561.42C583.645 561.456 583.759 561.486 583.843 561.51C583.927 561.522 584.059 561.552 584.239 561.6C584.419 561.636 584.557 561.666 584.653 561.69C585.745 561.954 586.549 562.272 587.065 562.644C587.581 563.016 587.839 563.58 587.839 564.336C587.839 565.236 587.527 565.938 586.903 566.442C586.279 566.934 585.433 567.18 584.365 567.18C583.333 567.18 582.499 566.94 581.863 566.46C581.227 565.968 580.849 565.278 580.729 564.39L582.277 564.282C582.421 565.314 583.129 565.83 584.401 565.83C584.977 565.83 585.433 565.716 585.769 565.488C586.117 565.248 586.291 564.906 586.291 564.462C586.291 564.018 586.135 563.706 585.823 563.526C585.523 563.334 584.923 563.13 584.023 562.914C583.579 562.806 583.237 562.722 582.997 562.662C582.757 562.59 582.481 562.488 582.169 562.356C581.857 562.224 581.623 562.08 581.467 561.924C581.323 561.756 581.191 561.54 581.071 561.276C580.963 561.012 580.909 560.706 580.909 560.358C580.909 559.542 581.203 558.888 581.791 558.396C582.391 557.904 583.219 557.664 584.275 557.676ZM597.114 567.18C596.202 567.18 595.47 566.952 594.918 566.496C594.378 566.028 594.108 565.386 594.108 564.57C594.108 563.682 594.396 563.028 594.972 562.608C595.56 562.176 596.394 561.864 597.474 561.672L599.85 561.258V560.826C599.85 560.298 599.682 559.866 599.346 559.53C599.022 559.194 598.548 559.026 597.924 559.026C597.456 559.026 597.036 559.152 596.664 559.404C596.304 559.644 596.058 559.968 595.926 560.376L594.648 559.566C594.924 558.966 595.35 558.498 595.926 558.162C596.514 557.826 597.174 557.658 597.906 557.658C599.034 557.658 599.898 557.97 600.498 558.594C601.11 559.206 601.416 560.082 601.416 561.222V567H599.85V565.92C599.142 566.76 598.23 567.18 597.114 567.18ZM597.348 565.848C598.104 565.848 598.71 565.644 599.166 565.236C599.634 564.816 599.868 564.174 599.868 563.31V562.59L597.672 562.914C596.34 563.118 595.674 563.658 595.674 564.534C595.674 565.41 596.232 565.848 597.348 565.848ZM604.476 567V553.014H606.024V567H604.476ZM609.53 567L609.548 559.17H607.838V557.82H609.548L609.566 554.652H611.132L611.114 557.82H613.58V559.17H611.114L611.078 565.65H613.544V567H609.53ZM616.323 558.972C617.223 558.096 618.351 557.658 619.707 557.658C621.063 557.658 622.185 558.096 623.073 558.972C623.973 559.836 624.423 560.982 624.423 562.41C624.423 563.838 623.973 564.99 623.073 565.866C622.185 566.742 621.063 567.18 619.707 567.18C618.351 567.18 617.223 566.742 616.323 565.866C615.435 564.99 614.991 563.838 614.991 562.41C614.991 560.982 615.435 559.836 616.323 558.972ZM621.957 559.926C621.369 559.314 620.619 559.008 619.707 559.008C618.795 559.008 618.039 559.314 617.439 559.926C616.851 560.538 616.557 561.366 616.557 562.41C616.557 563.454 616.851 564.288 617.439 564.912C618.039 565.524 618.795 565.83 619.707 565.83C620.619 565.83 621.369 565.524 621.957 564.912C622.557 564.288 622.857 563.454 622.857 562.41C622.857 561.366 622.557 560.538 621.957 559.926ZM435.013 590V588.506C434.737 588.998 434.311 589.4 433.735 589.712C433.171 590.024 432.511 590.18 431.755 590.18C430.471 590.18 429.409 589.754 428.569 588.902C427.741 588.038 427.327 586.88 427.327 585.428C427.327 583.976 427.741 582.818 428.569 581.954C429.409 581.09 430.471 580.658 431.755 580.658C432.499 580.658 433.147 580.802 433.699 581.09C434.251 581.378 434.659 581.75 434.923 582.206V576.014H436.471V590H435.013ZM431.971 582.008C431.071 582.008 430.333 582.308 429.757 582.908C429.181 583.508 428.893 584.342 428.893 585.41C428.893 586.49 429.181 587.33 429.757 587.93C430.333 588.53 431.071 588.83 431.971 588.83C432.847 588.83 433.555 588.56 434.095 588.02C434.647 587.468 434.923 586.688 434.923 585.68V585.14C434.923 584.132 434.647 583.358 434.095 582.818C433.555 582.278 432.847 582.008 431.971 582.008ZM440.655 586.004C440.703 586.88 440.991 587.57 441.519 588.074C442.047 588.578 442.719 588.83 443.535 588.83C444.207 588.83 444.765 588.686 445.209 588.398C445.653 588.11 445.953 587.708 446.109 587.192L447.657 587.282C447.465 588.122 446.997 588.818 446.253 589.37C445.509 589.91 444.615 590.18 443.571 590.18C442.227 590.18 441.129 589.754 440.277 588.902C439.437 588.038 439.017 586.874 439.017 585.41C439.017 583.946 439.437 582.788 440.277 581.936C441.117 581.084 442.203 580.658 443.535 580.658C444.843 580.658 445.869 581.066 446.613 581.882C447.369 582.698 447.747 583.79 447.747 585.158V586.004H440.655ZM443.517 582.008C442.701 582.008 442.029 582.248 441.501 582.728C440.985 583.196 440.703 583.868 440.655 584.744H446.199C446.175 583.916 445.935 583.256 445.479 582.764C445.023 582.26 444.369 582.008 443.517 582.008ZM459.201 590L459.219 582.17H457.509V580.82H459.219L459.237 577.652H460.803L460.785 580.82H463.251V582.17H460.785L460.749 588.65H463.215V590H459.201ZM471.305 590V588.632C471.113 589.052 470.783 589.418 470.315 589.73C469.847 590.03 469.259 590.18 468.551 590.18C467.531 590.18 466.715 589.844 466.103 589.172C465.503 588.488 465.203 587.594 465.203 586.49V580.82H466.751V586.274C466.751 587.03 466.937 587.63 467.309 588.074C467.693 588.506 468.227 588.722 468.911 588.722C469.619 588.722 470.183 588.476 470.603 587.984C471.023 587.492 471.233 586.892 471.233 586.184V580.82H472.781V590H471.305ZM484.105 580.658C485.197 580.658 486.121 580.97 486.877 581.594C487.645 582.206 488.095 583.04 488.227 584.096L486.715 584.222C486.631 583.538 486.349 582.998 485.869 582.602C485.389 582.194 484.801 581.99 484.105 581.99C483.229 581.99 482.521 582.296 481.981 582.908C481.441 583.508 481.171 584.342 481.171 585.41C481.171 586.478 481.441 587.318 481.981 587.93C482.533 588.53 483.241 588.83 484.105 588.83C484.825 588.83 485.413 588.644 485.869 588.272C486.337 587.9 486.625 587.39 486.733 586.742L488.245 586.886C488.077 587.906 487.621 588.71 486.877 589.298C486.133 589.886 485.209 590.18 484.105 590.18C482.785 590.18 481.699 589.754 480.847 588.902C480.007 588.05 479.587 586.886 479.587 585.41C479.587 583.934 480.007 582.776 480.847 581.936C481.687 581.084 482.773 580.658 484.105 580.658ZM490.425 590V580.82H494.835V582.098H491.937V590H490.425ZM497.643 586.004C497.691 586.88 497.979 587.57 498.507 588.074C499.035 588.578 499.707 588.83 500.523 588.83C501.195 588.83 501.753 588.686 502.197 588.398C502.641 588.11 502.941 587.708 503.097 587.192L504.645 587.282C504.453 588.122 503.985 588.818 503.241 589.37C502.497 589.91 501.603 590.18 500.559 590.18C499.215 590.18 498.117 589.754 497.265 588.902C496.425 588.038 496.005 586.874 496.005 585.41C496.005 583.946 496.425 582.788 497.265 581.936C498.105 581.084 499.191 580.658 500.523 580.658C501.831 580.658 502.857 581.066 503.601 581.882C504.357 582.698 504.735 583.79 504.735 585.158V586.004H497.643ZM500.505 582.008C499.689 582.008 499.017 582.248 498.489 582.728C497.973 583.196 497.691 583.868 497.643 584.744H503.187C503.163 583.916 502.923 583.256 502.467 582.764C502.011 582.26 501.357 582.008 500.505 582.008ZM511.158 580.658C512.25 580.658 513.174 580.97 513.93 581.594C514.698 582.206 515.148 583.04 515.28 584.096L513.768 584.222C513.684 583.538 513.402 582.998 512.922 582.602C512.442 582.194 511.854 581.99 511.158 581.99C510.282 581.99 509.574 582.296 509.034 582.908C508.494 583.508 508.224 584.342 508.224 585.41C508.224 586.478 508.494 587.318 509.034 587.93C509.586 588.53 510.294 588.83 511.158 588.83C511.878 588.83 512.466 588.644 512.922 588.272C513.39 587.9 513.678 587.39 513.786 586.742L515.298 586.886C515.13 587.906 514.674 588.71 513.93 589.298C513.186 589.886 512.262 590.18 511.158 590.18C509.838 590.18 508.752 589.754 507.9 588.902C507.06 588.05 506.64 586.886 506.64 585.41C506.64 583.934 507.06 582.776 507.9 581.936C508.74 581.084 509.826 580.658 511.158 580.658ZM517.73 576.788C517.934 576.584 518.174 576.482 518.45 576.482C518.726 576.482 518.966 576.584 519.17 576.788C519.374 576.98 519.476 577.22 519.476 577.508C519.476 577.784 519.374 578.024 519.17 578.228C518.966 578.42 518.726 578.516 518.45 578.516C518.162 578.516 517.916 578.42 517.712 578.228C517.52 578.024 517.424 577.784 517.424 577.508C517.424 577.22 517.526 576.98 517.73 576.788ZM517.658 590V580.82H519.206V590H517.658ZM532.701 580.658C533.721 580.658 534.543 581.006 535.167 581.702C535.803 582.386 536.121 583.286 536.121 584.402V590H534.573V584.618C534.573 583.85 534.369 583.238 533.961 582.782C533.565 582.326 533.025 582.098 532.341 582.098C531.693 582.098 531.159 582.308 530.739 582.728C530.331 583.136 530.097 583.664 530.037 584.312V590H528.471V584.618C528.471 583.862 528.267 583.256 527.859 582.8C527.463 582.332 526.941 582.098 526.293 582.098C525.585 582.098 525.009 582.344 524.565 582.836C524.121 583.328 523.899 583.928 523.899 584.636V590H522.351V580.82H523.827V582.206C524.355 581.174 525.285 580.658 526.617 580.658C527.289 580.658 527.889 580.82 528.417 581.144C528.945 581.456 529.347 581.9 529.623 582.476C529.899 581.924 530.301 581.486 530.829 581.162C531.369 580.826 531.993 580.658 532.701 580.658ZM539.245 576.788C539.449 576.584 539.689 576.482 539.965 576.482C540.241 576.482 540.481 576.584 540.685 576.788C540.889 576.98 540.991 577.22 540.991 577.508C540.991 577.784 540.889 578.024 540.685 578.228C540.481 578.42 540.241 578.516 539.965 578.516C539.677 578.516 539.431 578.42 539.227 578.228C539.035 578.024 538.939 577.784 538.939 577.508C538.939 577.22 539.041 576.98 539.245 576.788ZM539.173 590V580.82H540.721V590H539.173ZM544.893 586.004C544.941 586.88 545.229 587.57 545.757 588.074C546.285 588.578 546.957 588.83 547.773 588.83C548.445 588.83 549.003 588.686 549.447 588.398C549.891 588.11 550.191 587.708 550.347 587.192L551.895 587.282C551.703 588.122 551.235 588.818 550.491 589.37C549.747 589.91 548.853 590.18 547.809 590.18C546.465 590.18 545.367 589.754 544.515 588.902C543.675 588.038 543.255 586.874 543.255 585.41C543.255 583.946 543.675 582.788 544.515 581.936C545.355 581.084 546.441 580.658 547.773 580.658C549.081 580.658 550.107 581.066 550.851 581.882C551.607 582.698 551.985 583.79 551.985 585.158V586.004H544.893ZM547.755 582.008C546.939 582.008 546.267 582.248 545.739 582.728C545.223 583.196 544.941 583.868 544.893 584.744H550.437C550.413 583.916 550.173 583.256 549.717 582.764C549.261 582.26 548.607 582.008 547.755 582.008ZM558.84 580.658C559.884 580.658 560.736 581 561.396 581.684C562.068 582.368 562.404 583.28 562.404 584.42V590H560.838V584.618C560.838 583.862 560.622 583.256 560.19 582.8C559.77 582.332 559.212 582.098 558.516 582.098C557.796 582.098 557.202 582.344 556.734 582.836C556.278 583.328 556.05 583.928 556.05 584.636V590H554.502V580.82H555.978V582.188C556.218 581.744 556.584 581.378 557.076 581.09C557.568 580.802 558.156 580.658 558.84 580.658ZM565.83 590L565.848 582.17H564.138V580.82H565.848L565.866 577.652H567.432L567.414 580.82H569.88V582.17H567.414L567.378 588.65H569.844V590H565.83ZM572.624 581.972C573.524 581.096 574.652 580.658 576.008 580.658C577.364 580.658 578.486 581.096 579.374 581.972C580.274 582.836 580.724 583.982 580.724 585.41C580.724 586.838 580.274 587.99 579.374 588.866C578.486 589.742 577.364 590.18 576.008 590.18C574.652 590.18 573.524 589.742 572.624 588.866C571.736 587.99 571.292 586.838 571.292 585.41C571.292 583.982 571.736 582.836 572.624 581.972ZM578.258 582.926C577.67 582.314 576.92 582.008 576.008 582.008C575.096 582.008 574.34 582.314 573.74 582.926C573.152 583.538 572.858 584.366 572.858 585.41C572.858 586.454 573.152 587.288 573.74 587.912C574.34 588.524 575.096 588.83 576.008 588.83C576.92 588.83 577.67 588.524 578.258 587.912C578.858 587.288 579.158 586.454 579.158 585.41C579.158 584.366 578.858 583.538 578.258 582.926Z" fill="#083B51"/>
<path d="M59.5667 621.366L53.9147 607.902H55.7147L60.2687 618.81L64.8047 607.902H66.6047L60.9527 621.366H59.5667ZM69.626 621.546C68.714 621.546 67.982 621.318 67.43 620.862C66.89 620.394 66.62 619.752 66.62 618.936C66.62 618.048 66.908 617.394 67.484 616.974C68.072 616.542 68.906 616.23 69.986 616.038L72.362 615.624V615.192C72.362 614.664 72.194 614.232 71.858 613.896C71.534 613.56 71.06 613.392 70.436 613.392C69.968 613.392 69.548 613.518 69.176 613.77C68.816 614.01 68.57 614.334 68.438 614.742L67.16 613.932C67.436 613.332 67.862 612.864 68.438 612.528C69.026 612.192 69.686 612.024 70.418 612.024C71.546 612.024 72.41 612.336 73.01 612.96C73.622 613.572 73.928 614.448 73.928 615.588V621.366H72.362V620.286C71.654 621.126 70.742 621.546 69.626 621.546ZM69.86 620.214C70.616 620.214 71.222 620.01 71.678 619.602C72.146 619.182 72.38 618.54 72.38 617.676V616.956L70.184 617.28C68.852 617.484 68.186 618.024 68.186 618.9C68.186 619.776 68.744 620.214 69.86 620.214ZM76.9879 621.366V607.38H78.5359V621.366H76.9879ZM81.7532 608.154C81.9572 607.95 82.1972 607.848 82.4732 607.848C82.7492 607.848 82.9892 607.95 83.1932 608.154C83.3972 608.346 83.4992 608.586 83.4992 608.874C83.4992 609.15 83.3972 609.39 83.1932 609.594C82.9892 609.786 82.7492 609.882 82.4732 609.882C82.1852 609.882 81.9392 609.786 81.7352 609.594C81.5432 609.39 81.4472 609.15 81.4472 608.874C81.4472 608.586 81.5492 608.346 81.7532 608.154ZM81.6812 621.366V612.186H83.2292V621.366H81.6812ZM93.4486 621.366V619.872C93.1726 620.364 92.7466 620.766 92.1706 621.078C91.6066 621.39 90.9466 621.546 90.1906 621.546C88.9066 621.546 87.8446 621.12 87.0046 620.268C86.1766 619.404 85.7626 618.246 85.7626 616.794C85.7626 615.342 86.1766 614.184 87.0046 613.32C87.8446 612.456 88.9066 612.024 90.1906 612.024C90.9346 612.024 91.5826 612.168 92.1346 612.456C92.6866 612.744 93.0946 613.116 93.3586 613.572V607.38H94.9066V621.366H93.4486ZM90.4066 613.374C89.5066 613.374 88.7686 613.674 88.1926 614.274C87.6166 614.874 87.3286 615.708 87.3286 616.776C87.3286 617.856 87.6166 618.696 88.1926 619.296C88.7686 619.896 89.5066 620.196 90.4066 620.196C91.2826 620.196 91.9906 619.926 92.5306 619.386C93.0826 618.834 93.3586 618.054 93.3586 617.046V616.506C93.3586 615.498 93.0826 614.724 92.5306 614.184C91.9906 613.644 91.2826 613.374 90.4066 613.374ZM100.458 621.546C99.546 621.546 98.814 621.318 98.262 620.862C97.722 620.394 97.452 619.752 97.452 618.936C97.452 618.048 97.74 617.394 98.316 616.974C98.904 616.542 99.738 616.23 100.818 616.038L103.194 615.624V615.192C103.194 614.664 103.026 614.232 102.69 613.896C102.366 613.56 101.892 613.392 101.268 613.392C100.8 613.392 100.38 613.518 100.008 613.77C99.648 614.01 99.402 614.334 99.27 614.742L97.992 613.932C98.268 613.332 98.694 612.864 99.27 612.528C99.858 612.192 100.518 612.024 101.25 612.024C102.378 612.024 103.242 612.336 103.842 612.96C104.454 613.572 104.76 614.448 104.76 615.588V621.366H103.194V620.286C102.486 621.126 101.574 621.546 100.458 621.546ZM100.692 620.214C101.448 620.214 102.054 620.01 102.51 619.602C102.978 619.182 103.212 618.54 103.212 617.676V616.956L101.016 617.28C99.684 617.484 99.018 618.024 99.018 618.9C99.018 619.776 99.576 620.214 100.692 620.214ZM111.726 612.024C112.818 612.024 113.742 612.336 114.498 612.96C115.266 613.572 115.716 614.406 115.848 615.462L114.336 615.588C114.252 614.904 113.97 614.364 113.49 613.968C113.01 613.56 112.422 613.356 111.726 613.356C110.85 613.356 110.142 613.662 109.602 614.274C109.062 614.874 108.792 615.708 108.792 616.776C108.792 617.844 109.062 618.684 109.602 619.296C110.154 619.896 110.862 620.196 111.726 620.196C112.446 620.196 113.034 620.01 113.49 619.638C113.958 619.266 114.246 618.756 114.354 618.108L115.866 618.252C115.698 619.272 115.242 620.076 114.498 620.664C113.754 621.252 112.83 621.546 111.726 621.546C110.406 621.546 109.32 621.12 108.468 620.268C107.628 619.416 107.208 618.252 107.208 616.776C107.208 615.3 107.628 614.142 108.468 613.302C109.308 612.45 110.394 612.024 111.726 612.024ZM118.298 608.154C118.502 607.95 118.742 607.848 119.018 607.848C119.294 607.848 119.534 607.95 119.738 608.154C119.942 608.346 120.044 608.586 120.044 608.874C120.044 609.15 119.942 609.39 119.738 609.594C119.534 609.786 119.294 609.882 119.018 609.882C118.73 609.882 118.484 609.786 118.28 609.594C118.088 609.39 117.992 609.15 117.992 608.874C117.992 608.586 118.094 608.346 118.298 608.154ZM118.226 621.366V612.186H119.774V621.366H118.226ZM126.358 610.656L128.212 607.218H129.976L127.6 610.656H126.358ZM123.64 613.338C124.54 612.462 125.668 612.024 127.024 612.024C128.38 612.024 129.502 612.462 130.39 613.338C131.29 614.202 131.74 615.348 131.74 616.776C131.74 618.204 131.29 619.356 130.39 620.232C129.502 621.108 128.38 621.546 127.024 621.546C125.668 621.546 124.54 621.108 123.64 620.232C122.752 619.356 122.308 618.204 122.308 616.776C122.308 615.348 122.752 614.202 123.64 613.338ZM129.274 614.292C128.686 613.68 127.936 613.374 127.024 613.374C126.112 613.374 125.356 613.68 124.756 614.292C124.168 614.904 123.874 615.732 123.874 616.776C123.874 617.82 124.168 618.654 124.756 619.278C125.356 619.89 126.112 620.196 127.024 620.196C127.936 620.196 128.686 619.89 129.274 619.278C129.874 618.654 130.174 617.82 130.174 616.776C130.174 615.732 129.874 614.904 129.274 614.292ZM138.613 612.024C139.657 612.024 140.509 612.366 141.169 613.05C141.841 613.734 142.177 614.646 142.177 615.786V621.366H140.611V615.984C140.611 615.228 140.395 614.622 139.963 614.166C139.543 613.698 138.985 613.464 138.289 613.464C137.569 613.464 136.975 613.71 136.507 614.202C136.051 614.694 135.823 615.294 135.823 616.002V621.366H134.275V612.186H135.751V613.554C135.991 613.11 136.357 612.744 136.849 612.456C137.341 612.168 137.929 612.024 138.613 612.024Z" fill="#083B51"/>
<path d="M171.433 578.25C172.033 578.25 172.537 578.46 172.945 578.88C173.365 579.3 173.575 579.81 173.575 580.41C173.575 581.022 173.365 581.538 172.945 581.958C172.537 582.378 172.033 582.588 171.433 582.588C170.821 582.588 170.305 582.378 169.885 581.958C169.465 581.538 169.255 581.022 169.255 580.41C169.255 579.81 169.465 579.3 169.885 578.88C170.305 578.46 170.821 578.25 171.433 578.25ZM190.933 585L185.281 571.536H187.081L191.635 582.444L196.171 571.536H197.971L192.319 585H190.933ZM199.501 581.004C199.549 581.88 199.837 582.57 200.365 583.074C200.893 583.578 201.565 583.83 202.381 583.83C203.053 583.83 203.611 583.686 204.055 583.398C204.499 583.11 204.799 582.708 204.955 582.192L206.503 582.282C206.311 583.122 205.843 583.818 205.099 584.37C204.355 584.91 203.461 585.18 202.417 585.18C201.073 585.18 199.975 584.754 199.123 583.902C198.283 583.038 197.863 581.874 197.863 580.41C197.863 578.946 198.283 577.788 199.123 576.936C199.963 576.084 201.049 575.658 202.381 575.658C203.689 575.658 204.715 576.066 205.459 576.882C206.215 577.698 206.593 578.79 206.593 580.158V581.004H199.501ZM202.363 577.008C201.547 577.008 200.875 577.248 200.347 577.728C199.831 578.196 199.549 578.868 199.501 579.744H205.045C205.021 578.916 204.781 578.256 204.325 577.764C203.869 577.26 203.215 577.008 202.363 577.008ZM213.448 575.658C214.492 575.658 215.344 576 216.004 576.684C216.676 577.368 217.012 578.28 217.012 579.42V585H215.446V579.618C215.446 578.862 215.23 578.256 214.798 577.8C214.378 577.332 213.82 577.098 213.124 577.098C212.404 577.098 211.81 577.344 211.342 577.836C210.886 578.328 210.658 578.928 210.658 579.636V585H209.11V575.82H210.586V577.188C210.826 576.744 211.192 576.378 211.684 576.09C212.176 575.802 212.764 575.658 213.448 575.658ZM220.439 585L220.457 577.17H218.747V575.82H220.457L220.475 572.652H222.041L222.023 575.82H224.489V577.17H222.023L221.987 583.65H224.453V585H220.439ZM228.906 585.18C227.994 585.18 227.262 584.952 226.71 584.496C226.17 584.028 225.9 583.386 225.9 582.57C225.9 581.682 226.188 581.028 226.764 580.608C227.352 580.176 228.186 579.864 229.266 579.672L231.642 579.258V578.826C231.642 578.298 231.474 577.866 231.138 577.53C230.814 577.194 230.34 577.026 229.716 577.026C229.248 577.026 228.828 577.152 228.456 577.404C228.096 577.644 227.85 577.968 227.718 578.376L226.44 577.566C226.716 576.966 227.142 576.498 227.718 576.162C228.306 575.826 228.966 575.658 229.698 575.658C230.826 575.658 231.69 575.97 232.29 576.594C232.902 577.206 233.208 578.082 233.208 579.222V585H231.642V583.92C230.934 584.76 230.022 585.18 228.906 585.18ZM229.14 583.848C229.896 583.848 230.502 583.644 230.958 583.236C231.426 582.816 231.66 582.174 231.66 581.31V580.59L229.464 580.914C228.132 581.118 227.466 581.658 227.466 582.534C227.466 583.41 228.024 583.848 229.14 583.848ZM239.094 575.676C240.078 575.664 240.858 575.916 241.434 576.432C242.01 576.936 242.352 577.602 242.46 578.43L240.912 578.52C240.792 577.5 240.168 576.996 239.04 577.008C238.476 576.996 238.044 577.11 237.744 577.35C237.444 577.59 237.294 577.92 237.294 578.34C237.294 578.448 237.3 578.544 237.312 578.628C237.336 578.712 237.372 578.79 237.42 578.862C237.468 578.934 237.51 579 237.546 579.06C237.594 579.108 237.666 579.156 237.762 579.204C237.87 579.252 237.954 579.294 238.014 579.33C238.086 579.354 238.188 579.384 238.32 579.42C238.464 579.456 238.578 579.486 238.662 579.51C238.746 579.522 238.878 579.552 239.058 579.6C239.238 579.636 239.376 579.666 239.472 579.69C240.564 579.954 241.368 580.272 241.884 580.644C242.4 581.016 242.658 581.58 242.658 582.336C242.658 583.236 242.346 583.938 241.722 584.442C241.098 584.934 240.252 585.18 239.184 585.18C238.152 585.18 237.318 584.94 236.682 584.46C236.046 583.968 235.668 583.278 235.548 582.39L237.096 582.282C237.24 583.314 237.948 583.83 239.22 583.83C239.796 583.83 240.252 583.716 240.588 583.488C240.936 583.248 241.11 582.906 241.11 582.462C241.11 582.018 240.954 581.706 240.642 581.526C240.342 581.334 239.742 581.13 238.842 580.914C238.398 580.806 238.056 580.722 237.816 580.662C237.576 580.59 237.3 580.488 236.988 580.356C236.676 580.224 236.442 580.08 236.286 579.924C236.142 579.756 236.01 579.54 235.89 579.276C235.782 579.012 235.728 578.706 235.728 578.358C235.728 577.542 236.022 576.888 236.61 576.396C237.21 575.904 238.038 575.664 239.094 575.676Z" fill="#083B51"/>
<path d="M171.433 614.616C172.033 614.616 172.537 614.826 172.945 615.246C173.365 615.666 173.575 616.176 173.575 616.776C173.575 617.388 173.365 617.904 172.945 618.324C172.537 618.744 172.033 618.954 171.433 618.954C170.821 618.954 170.305 618.744 169.885 618.324C169.465 617.904 169.255 617.388 169.255 616.776C169.255 616.176 169.465 615.666 169.885 615.246C170.305 614.826 170.821 614.616 171.433 614.616ZM191.815 607.902C193.039 607.902 194.035 608.256 194.803 608.964C195.571 609.672 195.955 610.68 195.955 611.988C195.955 613.284 195.571 614.286 194.803 614.994C194.035 615.702 193.039 616.056 191.815 616.056H188.197V621.366H186.541V607.902H191.815ZM188.179 614.598H191.617C192.385 614.598 193.015 614.376 193.507 613.932C194.011 613.476 194.263 612.828 194.263 611.988C194.263 611.136 194.011 610.488 193.507 610.044C193.015 609.588 192.385 609.36 191.617 609.36H188.179V614.598ZM197.996 621.366V612.186H202.406V613.464H199.508V621.366H197.996ZM204.908 613.338C205.808 612.462 206.936 612.024 208.292 612.024C209.648 612.024 210.77 612.462 211.658 613.338C212.558 614.202 213.008 615.348 213.008 616.776C213.008 618.204 212.558 619.356 211.658 620.232C210.77 621.108 209.648 621.546 208.292 621.546C206.936 621.546 205.808 621.108 204.908 620.232C204.02 619.356 203.576 618.204 203.576 616.776C203.576 615.348 204.02 614.202 204.908 613.338ZM210.542 614.292C209.954 613.68 209.204 613.374 208.292 613.374C207.38 613.374 206.624 613.68 206.024 614.292C205.436 614.904 205.142 615.732 205.142 616.776C205.142 617.82 205.436 618.654 206.024 619.278C206.624 619.89 207.38 620.196 208.292 620.196C209.204 620.196 209.954 619.89 210.542 619.278C211.142 618.654 211.442 617.82 211.442 616.776C211.442 615.732 211.142 614.904 210.542 614.292ZM219.45 612.024C220.542 612.024 221.466 612.336 222.222 612.96C222.99 613.572 223.44 614.406 223.572 615.462L222.06 615.588C221.976 614.904 221.694 614.364 221.214 613.968C220.734 613.56 220.146 613.356 219.45 613.356C218.574 613.356 217.866 613.662 217.326 614.274C216.786 614.874 216.516 615.708 216.516 616.776C216.516 617.844 216.786 618.684 217.326 619.296C217.878 619.896 218.586 620.196 219.45 620.196C220.17 620.196 220.758 620.01 221.214 619.638C221.682 619.266 221.97 618.756 222.078 618.108L223.59 618.252C223.422 619.272 222.966 620.076 222.222 620.664C221.478 621.252 220.554 621.546 219.45 621.546C218.13 621.546 217.044 621.12 216.192 620.268C215.352 619.416 214.932 618.252 214.932 616.776C214.932 615.3 215.352 614.142 216.192 613.302C217.032 612.45 218.118 612.024 219.45 612.024ZM226.976 617.37C227.024 618.246 227.312 618.936 227.84 619.44C228.368 619.944 229.04 620.196 229.856 620.196C230.528 620.196 231.086 620.052 231.53 619.764C231.974 619.476 232.274 619.074 232.43 618.558L233.978 618.648C233.786 619.488 233.318 620.184 232.574 620.736C231.83 621.276 230.936 621.546 229.892 621.546C228.548 621.546 227.45 621.12 226.598 620.268C225.758 619.404 225.338 618.24 225.338 616.776C225.338 615.312 225.758 614.154 226.598 613.302C227.438 612.45 228.524 612.024 229.856 612.024C231.164 612.024 232.19 612.432 232.934 613.248C233.69 614.064 234.068 615.156 234.068 616.524V617.37H226.976ZM229.838 613.374C229.022 613.374 228.35 613.614 227.822 614.094C227.306 614.562 227.024 615.234 226.976 616.11H232.52C232.496 615.282 232.256 614.622 231.8 614.13C231.344 613.626 230.69 613.374 229.838 613.374ZM239.411 612.042C240.395 612.03 241.175 612.282 241.751 612.798C242.327 613.302 242.669 613.968 242.777 614.796L241.229 614.886C241.109 613.866 240.485 613.362 239.357 613.374C238.793 613.362 238.361 613.476 238.061 613.716C237.761 613.956 237.611 614.286 237.611 614.706C237.611 614.814 237.617 614.91 237.629 614.994C237.653 615.078 237.689 615.156 237.737 615.228C237.785 615.3 237.827 615.366 237.863 615.426C237.911 615.474 237.983 615.522 238.079 615.57C238.187 615.618 238.271 615.66 238.331 615.696C238.403 615.72 238.505 615.75 238.637 615.786C238.781 615.822 238.895 615.852 238.979 615.876C239.063 615.888 239.195 615.918 239.375 615.966C239.555 616.002 239.693 616.032 239.789 616.056C240.881 616.32 241.685 616.638 242.201 617.01C242.717 617.382 242.975 617.946 242.975 618.702C242.975 619.602 242.663 620.304 242.039 620.808C241.415 621.3 240.569 621.546 239.501 621.546C238.469 621.546 237.635 621.306 236.999 620.826C236.363 620.334 235.985 619.644 235.865 618.756L237.413 618.648C237.557 619.68 238.265 620.196 239.537 620.196C240.113 620.196 240.569 620.082 240.905 619.854C241.253 619.614 241.427 619.272 241.427 618.828C241.427 618.384 241.271 618.072 240.959 617.892C240.659 617.7 240.059 617.496 239.159 617.28C238.715 617.172 238.373 617.088 238.133 617.028C237.893 616.956 237.617 616.854 237.305 616.722C236.993 616.59 236.759 616.446 236.603 616.29C236.459 616.122 236.327 615.906 236.207 615.642C236.099 615.378 236.045 615.072 236.045 614.724C236.045 613.908 236.339 613.254 236.927 612.762C237.527 612.27 238.355 612.03 239.411 612.042ZM246.287 613.338C247.187 612.462 248.315 612.024 249.671 612.024C251.027 612.024 252.149 612.462 253.037 613.338C253.937 614.202 254.387 615.348 254.387 616.776C254.387 618.204 253.937 619.356 253.037 620.232C252.149 621.108 251.027 621.546 249.671 621.546C248.315 621.546 247.187 621.108 246.287 620.232C245.399 619.356 244.955 618.204 244.955 616.776C244.955 615.348 245.399 614.202 246.287 613.338ZM251.921 614.292C251.333 613.68 250.583 613.374 249.671 613.374C248.759 613.374 248.003 613.68 247.403 614.292C246.815 614.904 246.521 615.732 246.521 616.776C246.521 617.82 246.815 618.654 247.403 619.278C248.003 619.89 248.759 620.196 249.671 620.196C250.583 620.196 251.333 619.89 251.921 619.278C252.521 618.654 252.821 617.82 252.821 616.776C252.821 615.732 252.521 614.904 251.921 614.292ZM259.748 612.042C260.732 612.03 261.512 612.282 262.088 612.798C262.664 613.302 263.006 613.968 263.114 614.796L261.566 614.886C261.446 613.866 260.822 613.362 259.694 613.374C259.13 613.362 258.698 613.476 258.398 613.716C258.098 613.956 257.948 614.286 257.948 614.706C257.948 614.814 257.954 614.91 257.966 614.994C257.99 615.078 258.026 615.156 258.074 615.228C258.122 615.3 258.164 615.366 258.2 615.426C258.248 615.474 258.32 615.522 258.416 615.57C258.524 615.618 258.608 615.66 258.668 615.696C258.74 615.72 258.842 615.75 258.974 615.786C259.118 615.822 259.232 615.852 259.316 615.876C259.4 615.888 259.532 615.918 259.712 615.966C259.892 616.002 260.03 616.032 260.126 616.056C261.218 616.32 262.022 616.638 262.538 617.01C263.054 617.382 263.312 617.946 263.312 618.702C263.312 619.602 263 620.304 262.376 620.808C261.752 621.3 260.906 621.546 259.838 621.546C258.806 621.546 257.972 621.306 257.336 620.826C256.7 620.334 256.322 619.644 256.202 618.756L257.75 618.648C257.894 619.68 258.602 620.196 259.874 620.196C260.45 620.196 260.906 620.082 261.242 619.854C261.59 619.614 261.764 619.272 261.764 618.828C261.764 618.384 261.608 618.072 261.296 617.892C260.996 617.7 260.396 617.496 259.496 617.28C259.052 617.172 258.71 617.088 258.47 617.028C258.23 616.956 257.954 616.854 257.642 616.722C257.33 616.59 257.096 616.446 256.94 616.29C256.796 616.122 256.664 615.906 256.544 615.642C256.436 615.378 256.382 615.072 256.382 614.724C256.382 613.908 256.676 613.254 257.264 612.762C257.864 612.27 258.692 612.03 259.748 612.042Z" fill="#083B51"/>
<path d="M171.433 650.983C172.033 650.983 172.537 651.193 172.945 651.613C173.365 652.033 173.575 652.543 173.575 653.143C173.575 653.755 173.365 654.271 172.945 654.691C172.537 655.111 172.033 655.321 171.433 655.321C170.821 655.321 170.305 655.111 169.885 654.691C169.465 654.271 169.255 653.755 169.255 653.143C169.255 652.543 169.465 652.033 169.885 651.613C170.305 651.193 170.821 650.983 171.433 650.983ZM188.197 645.727V650.065H194.083V651.487H188.197V656.275H194.875V657.733H186.541V644.269H194.875V645.727H188.197ZM200.973 648.391C201.729 648.391 202.389 648.547 202.953 648.859C203.529 649.171 203.955 649.573 204.231 650.065V648.553H205.689V662.323H204.141V656.365C203.877 656.821 203.469 657.193 202.917 657.481C202.365 657.769 201.717 657.913 200.973 657.913C199.689 657.913 198.627 657.481 197.787 656.617C196.959 655.753 196.545 654.595 196.545 653.143C196.545 651.691 196.959 650.539 197.787 649.687C198.627 648.823 199.689 648.391 200.973 648.391ZM201.189 649.741C200.289 649.741 199.551 650.041 198.975 650.641C198.399 651.241 198.111 652.081 198.111 653.161C198.111 654.229 198.399 655.063 198.975 655.663C199.551 656.263 200.289 656.563 201.189 656.563C202.065 656.563 202.773 656.293 203.313 655.753C203.865 655.213 204.141 654.439 204.141 653.431V652.891C204.141 651.883 203.865 651.109 203.313 650.569C202.773 650.017 202.065 649.741 201.189 649.741ZM214.876 657.733V656.365C214.684 656.785 214.354 657.151 213.886 657.463C213.418 657.763 212.83 657.913 212.122 657.913C211.102 657.913 210.286 657.577 209.674 656.905C209.074 656.221 208.774 655.327 208.774 654.223V648.553H210.322V654.007C210.322 654.763 210.508 655.363 210.88 655.807C211.264 656.239 211.798 656.455 212.482 656.455C213.19 656.455 213.754 656.209 214.174 655.717C214.594 655.225 214.804 654.625 214.804 653.917V648.553H216.352V657.733H214.876ZM219.553 644.521C219.757 644.317 219.997 644.215 220.273 644.215C220.549 644.215 220.789 644.317 220.993 644.521C221.197 644.713 221.299 644.953 221.299 645.241C221.299 645.517 221.197 645.757 220.993 645.961C220.789 646.153 220.549 646.249 220.273 646.249C219.985 646.249 219.739 646.153 219.535 645.961C219.343 645.757 219.247 645.517 219.247 645.241C219.247 644.953 219.349 644.713 219.553 644.521ZM219.481 657.733V648.553H221.029V657.733H219.481ZM228.908 648.391C230.192 648.391 231.248 648.823 232.076 649.687C232.916 650.539 233.336 651.691 233.336 653.143C233.336 654.595 232.916 655.753 232.076 656.617C231.248 657.481 230.192 657.913 228.908 657.913C228.164 657.913 227.516 657.775 226.964 657.499C226.412 657.211 225.998 656.833 225.722 656.365V662.323H224.174V648.553H225.65V650.065C225.926 649.561 226.346 649.159 226.91 648.859C227.474 648.547 228.14 648.391 228.908 648.391ZM228.674 649.741C227.798 649.741 227.09 650.017 226.55 650.569C226.01 651.109 225.74 651.883 225.74 652.891V653.431C225.74 654.427 226.01 655.201 226.55 655.753C227.09 656.293 227.798 656.563 228.674 656.563C229.574 656.563 230.312 656.263 230.888 655.663C231.464 655.063 231.752 654.229 231.752 653.161C231.752 652.081 231.464 651.241 230.888 650.641C230.312 650.041 229.574 649.741 228.674 649.741ZM236.584 649.705C237.484 648.829 238.612 648.391 239.968 648.391C241.324 648.391 242.446 648.829 243.334 649.705C244.234 650.569 244.684 651.715 244.684 653.143C244.684 654.571 244.234 655.723 243.334 656.599C242.446 657.475 241.324 657.913 239.968 657.913C238.612 657.913 237.484 657.475 236.584 656.599C235.696 655.723 235.252 654.571 235.252 653.143C235.252 651.715 235.696 650.569 236.584 649.705ZM242.218 650.659C241.63 650.047 240.88 649.741 239.968 649.741C239.056 649.741 238.3 650.047 237.7 650.659C237.112 651.271 236.818 652.099 236.818 653.143C236.818 654.187 237.112 655.021 237.7 655.645C238.3 656.257 239.056 656.563 239.968 656.563C240.88 656.563 241.63 656.257 242.218 655.645C242.818 655.021 243.118 654.187 243.118 653.143C243.118 652.099 242.818 651.271 242.218 650.659ZM250.045 648.409C251.029 648.397 251.809 648.649 252.385 649.165C252.961 649.669 253.303 650.335 253.411 651.163L251.863 651.253C251.743 650.233 251.119 649.729 249.991 649.741C249.427 649.729 248.995 649.843 248.695 650.083C248.395 650.323 248.245 650.653 248.245 651.073C248.245 651.181 248.251 651.277 248.263 651.361C248.287 651.445 248.323 651.523 248.371 651.595C248.419 651.667 248.461 651.733 248.497 651.793C248.545 651.841 248.617 651.889 248.713 651.937C248.821 651.985 248.905 652.027 248.965 652.063C249.037 652.087 249.139 652.117 249.271 652.153C249.415 652.189 249.529 652.219 249.613 652.243C249.697 652.255 249.829 652.285 250.009 652.333C250.189 652.369 250.327 652.399 250.423 652.423C251.515 652.687 252.319 653.005 252.835 653.377C253.351 653.749 253.609 654.313 253.609 655.069C253.609 655.969 253.297 656.671 252.673 657.175C252.049 657.667 251.203 657.913 250.135 657.913C249.103 657.913 248.269 657.673 247.633 657.193C246.997 656.701 246.619 656.011 246.499 655.123L248.047 655.015C248.191 656.047 248.899 656.563 250.171 656.563C250.747 656.563 251.203 656.449 251.539 656.221C251.887 655.981 252.061 655.639 252.061 655.195C252.061 654.751 251.905 654.439 251.593 654.259C251.293 654.067 250.693 653.863 249.793 653.647C249.349 653.539 249.007 653.455 248.767 653.395C248.527 653.323 248.251 653.221 247.939 653.089C247.627 652.957 247.393 652.813 247.237 652.657C247.093 652.489 246.961 652.273 246.841 652.009C246.733 651.745 246.679 651.439 246.679 651.091C246.679 650.275 246.973 649.621 247.561 649.129C248.161 648.637 248.989 648.397 250.045 648.409Z" fill="#083B51"/>
</svg>
