<svg width="912" height="465" viewBox="0 0 912 465" fill="none" xmlns="http://www.w3.org/2000/svg">
<path d="M267.596 401.635V464.484H514.912V402.043L359.242 401.635L436.246 309.587H346.663L267.596 401.635Z" fill="white"/>
<path d="M605 155.371H357.015L357.18 216.796H515.653L436.248 309.586H525.296L605 216.796V155.371Z" fill="white"/>
<path d="M294.112 154.662H604.86V432.736C604.86 449.869 592.918 463.775 578.205 463.775H267.457V185.701C267.457 168.568 279.399 154.662 294.112 154.662Z" stroke="#083B51" stroke-width="0.6" stroke-miterlimit="10"/>
<path d="M567.739 463.969H1.87207" stroke="#083B51" stroke-width="0.8" stroke-miterlimit="10"/>
<path d="M604.548 308.806L218.556 308.806M1.91699 308.806L149.425 308.806" stroke="#083B51" stroke-width="0.8" stroke-miterlimit="10"/>
<path d="M604.859 154.609H1.87207" stroke="#083B51" stroke-width="0.8" stroke-miterlimit="10"/>
<path d="M590.538 316.379L604.913 299.632L619.295 316.379" fill="#C1D9E4"/>
<path d="M590.538 316.379L604.913 299.632L619.295 316.379" stroke="#083B51" stroke-width="0.6" stroke-miterlimit="10"/>
<path d="M281.894 299.632L267.512 316.379L253.137 299.632" fill="#C1D9E4"/>
<path d="M281.894 299.632L267.512 316.379L253.137 299.632" stroke="#083B51" stroke-width="0.6" stroke-miterlimit="10"/>
<path d="M448.273 172.111L433.897 155.372L448.273 138.625" stroke="#083B51" stroke-width="0.6" stroke-miterlimit="10"/>
<path d="M13.968 395.514L4.368 381.642V395.514H2.16V377.562H4.008L13.656 391.458V377.562H15.84V395.514H13.968ZM20.16 395.514V377.562H22.368V395.514H20.16ZM32.5316 395.514L24.9956 377.562H27.3956L33.4676 392.106L39.5156 377.562H41.9156L34.3796 395.514H32.5316ZM46.7664 379.506V385.29H54.6144V387.186H46.7664V393.57H55.6704V395.514H44.5584V377.562H55.6704V379.506H46.7664ZM69.993 393.57V395.514H58.785V377.562H60.993V393.57H69.993ZM81.0834 395.514V380.514L77.9154 382.938L76.8354 381.234L81.6354 377.562H83.2434V395.514H81.0834Z" fill="#083B51"/>
<path d="M152.004 379.79L161.126 370.668" stroke="#083B51" stroke-width="0.556252" stroke-miterlimit="10"/>
<path d="M161.428 373.574L160.872 373.559L160.975 370.815L158.231 370.919L158.209 370.355L161.546 370.236L161.428 373.574Z" fill="#083B51"/>
<path d="M154.596 393.794C154.644 394.67 154.932 395.36 155.46 395.864C155.988 396.368 156.66 396.62 157.476 396.62C158.148 396.62 158.706 396.476 159.15 396.188C159.594 395.9 159.894 395.498 160.05 394.982L161.598 395.072C161.406 395.912 160.938 396.608 160.194 397.16C159.45 397.7 158.556 397.97 157.512 397.97C156.168 397.97 155.07 397.544 154.218 396.692C153.378 395.828 152.958 394.664 152.958 393.2C152.958 391.736 153.378 390.578 154.218 389.726C155.058 388.874 156.144 388.448 157.476 388.448C158.784 388.448 159.81 388.856 160.554 389.672C161.31 390.488 161.688 391.58 161.688 392.948V393.794H154.596ZM157.458 389.798C156.642 389.798 155.97 390.038 155.442 390.518C154.926 390.986 154.644 391.658 154.596 392.534H160.14C160.116 391.706 159.876 391.046 159.42 390.554C158.964 390.05 158.31 389.798 157.458 389.798ZM167.031 388.466C168.015 388.454 168.795 388.706 169.371 389.222C169.947 389.726 170.289 390.392 170.397 391.22L168.849 391.31C168.729 390.29 168.105 389.786 166.977 389.798C166.413 389.786 165.981 389.9 165.681 390.14C165.381 390.38 165.231 390.71 165.231 391.13C165.231 391.238 165.237 391.334 165.249 391.418C165.273 391.502 165.309 391.58 165.357 391.652C165.405 391.724 165.447 391.79 165.483 391.85C165.531 391.898 165.603 391.946 165.699 391.994C165.807 392.042 165.891 392.084 165.951 392.12C166.023 392.144 166.125 392.174 166.257 392.21C166.401 392.246 166.515 392.276 166.599 392.3C166.683 392.312 166.815 392.342 166.995 392.39C167.175 392.426 167.313 392.456 167.409 392.48C168.501 392.744 169.305 393.062 169.821 393.434C170.337 393.806 170.595 394.37 170.595 395.126C170.595 396.026 170.283 396.728 169.659 397.232C169.035 397.724 168.189 397.97 167.121 397.97C166.089 397.97 165.255 397.73 164.619 397.25C163.983 396.758 163.605 396.068 163.485 395.18L165.033 395.072C165.177 396.104 165.885 396.62 167.157 396.62C167.733 396.62 168.189 396.506 168.525 396.278C168.873 396.038 169.047 395.696 169.047 395.252C169.047 394.808 168.891 394.496 168.579 394.316C168.279 394.124 167.679 393.92 166.779 393.704C166.335 393.596 165.993 393.512 165.753 393.452C165.513 393.38 165.237 393.278 164.925 393.146C164.613 393.014 164.379 392.87 164.223 392.714C164.079 392.546 163.947 392.33 163.827 392.066C163.719 391.802 163.665 391.496 163.665 391.148C163.665 390.332 163.959 389.678 164.547 389.186C165.147 388.694 165.975 388.454 167.031 388.466ZM177.093 388.448C178.185 388.448 179.109 388.76 179.865 389.384C180.633 389.996 181.083 390.83 181.215 391.886L179.703 392.012C179.619 391.328 179.337 390.788 178.857 390.392C178.377 389.984 177.789 389.78 177.093 389.78C176.217 389.78 175.509 390.086 174.969 390.698C174.429 391.298 174.159 392.132 174.159 393.2C174.159 394.268 174.429 395.108 174.969 395.72C175.521 396.32 176.229 396.62 177.093 396.62C177.813 396.62 178.401 396.434 178.857 396.062C179.325 395.69 179.613 395.18 179.721 394.532L181.233 394.676C181.065 395.696 180.609 396.5 179.865 397.088C179.121 397.676 178.197 397.97 177.093 397.97C175.773 397.97 174.687 397.544 173.835 396.692C172.995 395.84 172.575 394.676 172.575 393.2C172.575 391.724 172.995 390.566 173.835 389.726C174.675 388.874 175.761 388.448 177.093 388.448ZM185.987 397.97C185.075 397.97 184.343 397.742 183.791 397.286C183.251 396.818 182.981 396.176 182.981 395.36C182.981 394.472 183.269 393.818 183.845 393.398C184.433 392.966 185.267 392.654 186.347 392.462L188.723 392.048V391.616C188.723 391.088 188.555 390.656 188.219 390.32C187.895 389.984 187.421 389.816 186.797 389.816C186.329 389.816 185.909 389.942 185.537 390.194C185.177 390.434 184.931 390.758 184.799 391.166L183.521 390.356C183.797 389.756 184.223 389.288 184.799 388.952C185.387 388.616 186.047 388.448 186.779 388.448C187.907 388.448 188.771 388.76 189.371 389.384C189.983 389.996 190.289 390.872 190.289 392.012V397.79H188.723V396.71C188.015 397.55 187.103 397.97 185.987 397.97ZM186.221 396.638C186.977 396.638 187.583 396.434 188.039 396.026C188.507 395.606 188.741 394.964 188.741 394.1V393.38L186.545 393.704C185.213 393.908 184.547 394.448 184.547 395.324C184.547 396.2 185.105 396.638 186.221 396.638ZM193.349 397.79V383.804H194.897V397.79H193.349ZM200.437 397.97C199.525 397.97 198.793 397.742 198.241 397.286C197.701 396.818 197.431 396.176 197.431 395.36C197.431 394.472 197.719 393.818 198.295 393.398C198.883 392.966 199.717 392.654 200.797 392.462L203.173 392.048V391.616C203.173 391.088 203.005 390.656 202.669 390.32C202.345 389.984 201.871 389.816 201.247 389.816C200.779 389.816 200.359 389.942 199.987 390.194C199.627 390.434 199.381 390.758 199.249 391.166L197.971 390.356C198.247 389.756 198.673 389.288 199.249 388.952C199.837 388.616 200.497 388.448 201.229 388.448C202.357 388.448 203.221 388.76 203.821 389.384C204.433 389.996 204.739 390.872 204.739 392.012V397.79H203.173V396.71C202.465 397.55 201.553 397.97 200.437 397.97ZM200.671 396.638C201.427 396.638 202.033 396.434 202.489 396.026C202.957 395.606 203.191 394.964 203.191 394.1V393.38L200.995 393.704C199.663 393.908 198.997 394.448 198.997 395.324C198.997 396.2 199.555 396.638 200.671 396.638ZM207.618 397.79V388.61H212.028V389.888H209.13V397.79H207.618Z" fill="#083B51"/>
<path d="M13.968 240.828L4.368 226.956V240.828H2.16V222.876H4.008L13.656 236.772V222.876H15.84V240.828H13.968ZM20.16 240.828V222.876H22.368V240.828H20.16ZM32.5316 240.828L24.9956 222.876H27.3956L33.4676 237.42L39.5156 222.876H41.9156L34.3796 240.828H32.5316ZM46.7664 224.82V230.604H54.6144V232.5H46.7664V238.884H55.6704V240.828H44.5584V222.876H55.6704V224.82H46.7664ZM69.993 238.884V240.828H58.785V222.876H60.993V238.884H69.993ZM83.1234 222.66C84.7714 222.66 86.0434 223.108 86.9394 224.004C87.8354 224.884 88.2834 226.108 88.2834 227.676C88.2834 229.052 87.9874 230.284 87.3954 231.372C86.8034 232.444 85.9234 233.588 84.7554 234.804L80.8674 238.884H88.4994V240.828H77.8674V239.052L83.1234 233.508C84.2274 232.356 84.9954 231.388 85.4274 230.604C85.8594 229.804 86.0754 228.86 86.0754 227.772C86.0754 226.796 85.8194 226.028 85.3074 225.468C84.8114 224.892 84.0994 224.604 83.1714 224.604C82.1474 224.604 81.3634 224.916 80.8194 225.54C80.2914 226.164 80.0194 227.052 80.0034 228.204L77.8194 228.084C77.8514 226.372 78.3234 225.044 79.2354 224.1C80.1634 223.14 81.4594 222.66 83.1234 222.66Z" fill="#083B51"/>
<path d="M151.675 294.623H164.58" stroke="#083B51" stroke-width="0.556252" stroke-miterlimit="10"/>
<path d="M162.733 296.892L162.354 296.492L164.364 294.623L162.354 292.754L162.733 292.346L165.18 294.623L162.733 296.892Z" fill="#083B51"/>
<path d="M155.635 315.073C154.723 315.073 153.991 314.845 153.439 314.389C152.899 313.921 152.629 313.279 152.629 312.463C152.629 311.575 152.917 310.921 153.493 310.501C154.081 310.069 154.915 309.757 155.995 309.565L158.371 309.151V308.719C158.371 308.191 158.203 307.759 157.867 307.423C157.543 307.087 157.069 306.919 156.445 306.919C155.977 306.919 155.557 307.045 155.185 307.297C154.825 307.537 154.579 307.861 154.447 308.269L153.169 307.459C153.445 306.859 153.871 306.391 154.447 306.055C155.035 305.719 155.695 305.551 156.427 305.551C157.555 305.551 158.419 305.863 159.019 306.487C159.631 307.099 159.937 307.975 159.937 309.115V314.893H158.371V313.813C157.663 314.653 156.751 315.073 155.635 315.073ZM155.869 313.741C156.625 313.741 157.231 313.537 157.687 313.129C158.155 312.709 158.389 312.067 158.389 311.203V310.483L156.193 310.807C154.861 311.011 154.195 311.551 154.195 312.427C154.195 313.303 154.753 313.741 155.869 313.741ZM165.823 305.569C166.807 305.557 167.587 305.809 168.163 306.325C168.739 306.829 169.081 307.495 169.189 308.323L167.641 308.413C167.521 307.393 166.897 306.889 165.769 306.901C165.205 306.889 164.773 307.003 164.473 307.243C164.173 307.483 164.023 307.813 164.023 308.233C164.023 308.341 164.029 308.437 164.041 308.521C164.065 308.605 164.101 308.683 164.149 308.755C164.197 308.827 164.239 308.893 164.275 308.953C164.323 309.001 164.395 309.049 164.491 309.097C164.599 309.145 164.683 309.187 164.743 309.223C164.815 309.247 164.917 309.277 165.049 309.313C165.193 309.349 165.307 309.379 165.391 309.403C165.475 309.415 165.607 309.445 165.787 309.493C165.967 309.529 166.105 309.559 166.201 309.583C167.293 309.847 168.097 310.165 168.613 310.537C169.129 310.909 169.387 311.473 169.387 312.229C169.387 313.129 169.075 313.831 168.451 314.335C167.827 314.827 166.981 315.073 165.913 315.073C164.881 315.073 164.047 314.833 163.411 314.353C162.775 313.861 162.397 313.171 162.277 312.283L163.825 312.175C163.969 313.207 164.677 313.723 165.949 313.723C166.525 313.723 166.981 313.609 167.317 313.381C167.665 313.141 167.839 312.799 167.839 312.355C167.839 311.911 167.683 311.599 167.371 311.419C167.071 311.227 166.471 311.023 165.571 310.807C165.127 310.699 164.785 310.615 164.545 310.555C164.305 310.483 164.029 310.381 163.717 310.249C163.405 310.117 163.171 309.973 163.015 309.817C162.871 309.649 162.739 309.433 162.619 309.169C162.511 308.905 162.457 308.599 162.457 308.251C162.457 307.435 162.751 306.781 163.339 306.289C163.939 305.797 164.767 305.557 165.823 305.569ZM173.005 310.897C173.053 311.773 173.341 312.463 173.869 312.967C174.397 313.471 175.069 313.723 175.885 313.723C176.557 313.723 177.115 313.579 177.559 313.291C178.003 313.003 178.303 312.601 178.459 312.085L180.007 312.175C179.815 313.015 179.347 313.711 178.603 314.263C177.859 314.803 176.965 315.073 175.921 315.073C174.577 315.073 173.479 314.647 172.627 313.795C171.787 312.931 171.367 311.767 171.367 310.303C171.367 308.839 171.787 307.681 172.627 306.829C173.467 305.977 174.553 305.551 175.885 305.551C177.193 305.551 178.219 305.959 178.963 306.775C179.719 307.591 180.097 308.683 180.097 310.051V310.897H173.005ZM175.867 306.901C175.051 306.901 174.379 307.141 173.851 307.621C173.335 308.089 173.053 308.761 173.005 309.637H178.549C178.525 308.809 178.285 308.149 177.829 307.657C177.373 307.153 176.719 306.901 175.867 306.901ZM186.952 305.551C187.996 305.551 188.848 305.893 189.508 306.577C190.18 307.261 190.516 308.173 190.516 309.313V314.893H188.95V309.511C188.95 308.755 188.734 308.149 188.302 307.693C187.882 307.225 187.324 306.991 186.628 306.991C185.908 306.991 185.314 307.237 184.846 307.729C184.39 308.221 184.162 308.821 184.162 309.529V314.893H182.614V305.713H184.09V307.081C184.33 306.637 184.696 306.271 185.188 305.983C185.68 305.695 186.268 305.551 186.952 305.551ZM193.943 314.893L193.961 307.063H192.251V305.713H193.961L193.979 302.545H195.545L195.527 305.713H197.993V307.063H195.527L195.491 313.543H197.957V314.893H193.943ZM202.41 315.073C201.498 315.073 200.766 314.845 200.214 314.389C199.674 313.921 199.404 313.279 199.404 312.463C199.404 311.575 199.692 310.921 200.268 310.501C200.856 310.069 201.69 309.757 202.77 309.565L205.146 309.151V308.719C205.146 308.191 204.978 307.759 204.642 307.423C204.318 307.087 203.844 306.919 203.22 306.919C202.752 306.919 202.332 307.045 201.96 307.297C201.6 307.537 201.354 307.861 201.222 308.269L199.944 307.459C200.22 306.859 200.646 306.391 201.222 306.055C201.81 305.719 202.47 305.551 203.202 305.551C204.33 305.551 205.194 305.863 205.794 306.487C206.406 307.099 206.712 307.975 206.712 309.115V314.893H205.146V313.813C204.438 314.653 203.526 315.073 202.41 315.073ZM202.644 313.741C203.4 313.741 204.006 313.537 204.462 313.129C204.93 312.709 205.164 312.067 205.164 311.203V310.483L202.968 310.807C201.636 311.011 200.97 311.551 200.97 312.427C200.97 313.303 201.528 313.741 202.644 313.741ZM209.592 314.893V305.713H214.002V306.991H211.104V314.893H209.592Z" fill="#083B51"/>
<path d="M153 226.296L162.123 217.174" stroke="#083B51" stroke-width="0.556252" stroke-miterlimit="10"/>
<path d="M162.424 220.08L161.868 220.065L161.971 217.321L159.227 217.425L159.205 216.861L162.543 216.742L162.424 220.08Z" fill="#083B51"/>
<path d="M155.592 240.3C155.64 241.176 155.928 241.866 156.456 242.37C156.984 242.874 157.656 243.126 158.472 243.126C159.144 243.126 159.702 242.982 160.146 242.694C160.59 242.406 160.89 242.004 161.046 241.488L162.594 241.578C162.402 242.418 161.934 243.114 161.19 243.666C160.446 244.206 159.552 244.476 158.508 244.476C157.164 244.476 156.066 244.05 155.214 243.198C154.374 242.334 153.954 241.17 153.954 239.706C153.954 238.242 154.374 237.084 155.214 236.232C156.054 235.38 157.14 234.954 158.472 234.954C159.78 234.954 160.806 235.362 161.55 236.178C162.306 236.994 162.684 238.086 162.684 239.454V240.3H155.592ZM158.454 236.304C157.638 236.304 156.966 236.544 156.438 237.024C155.922 237.492 155.64 238.164 155.592 239.04H161.136C161.112 238.212 160.872 237.552 160.416 237.06C159.96 236.556 159.306 236.304 158.454 236.304ZM168.027 234.972C169.011 234.96 169.791 235.212 170.367 235.728C170.943 236.232 171.285 236.898 171.393 237.726L169.845 237.816C169.725 236.796 169.101 236.292 167.973 236.304C167.409 236.292 166.977 236.406 166.677 236.646C166.377 236.886 166.227 237.216 166.227 237.636C166.227 237.744 166.233 237.84 166.245 237.924C166.269 238.008 166.305 238.086 166.353 238.158C166.401 238.23 166.443 238.296 166.479 238.356C166.527 238.404 166.599 238.452 166.695 238.5C166.803 238.548 166.887 238.59 166.947 238.626C167.019 238.65 167.121 238.68 167.253 238.716C167.397 238.752 167.511 238.782 167.595 238.806C167.679 238.818 167.811 238.848 167.991 238.896C168.171 238.932 168.309 238.962 168.405 238.986C169.497 239.25 170.301 239.568 170.817 239.94C171.333 240.312 171.591 240.876 171.591 241.632C171.591 242.532 171.279 243.234 170.655 243.738C170.031 244.23 169.185 244.476 168.117 244.476C167.085 244.476 166.251 244.236 165.615 243.756C164.979 243.264 164.601 242.574 164.481 241.686L166.029 241.578C166.173 242.61 166.881 243.126 168.153 243.126C168.729 243.126 169.185 243.012 169.521 242.784C169.869 242.544 170.043 242.202 170.043 241.758C170.043 241.314 169.887 241.002 169.575 240.822C169.275 240.63 168.675 240.426 167.775 240.21C167.331 240.102 166.989 240.018 166.749 239.958C166.509 239.886 166.233 239.784 165.921 239.652C165.609 239.52 165.375 239.376 165.219 239.22C165.075 239.052 164.943 238.836 164.823 238.572C164.715 238.308 164.661 238.002 164.661 237.654C164.661 236.838 164.955 236.184 165.543 235.692C166.143 235.2 166.971 234.96 168.027 234.972ZM178.089 234.954C179.181 234.954 180.105 235.266 180.861 235.89C181.629 236.502 182.079 237.336 182.211 238.392L180.699 238.518C180.615 237.834 180.333 237.294 179.853 236.898C179.373 236.49 178.785 236.286 178.089 236.286C177.213 236.286 176.505 236.592 175.965 237.204C175.425 237.804 175.155 238.638 175.155 239.706C175.155 240.774 175.425 241.614 175.965 242.226C176.517 242.826 177.225 243.126 178.089 243.126C178.809 243.126 179.397 242.94 179.853 242.568C180.321 242.196 180.609 241.686 180.717 241.038L182.229 241.182C182.061 242.202 181.605 243.006 180.861 243.594C180.117 244.182 179.193 244.476 178.089 244.476C176.769 244.476 175.683 244.05 174.831 243.198C173.991 242.346 173.571 241.182 173.571 239.706C173.571 238.23 173.991 237.072 174.831 236.232C175.671 235.38 176.757 234.954 178.089 234.954ZM186.983 244.476C186.071 244.476 185.339 244.248 184.787 243.792C184.247 243.324 183.977 242.682 183.977 241.866C183.977 240.978 184.265 240.324 184.841 239.904C185.429 239.472 186.263 239.16 187.343 238.968L189.719 238.554V238.122C189.719 237.594 189.551 237.162 189.215 236.826C188.891 236.49 188.417 236.322 187.793 236.322C187.325 236.322 186.905 236.448 186.533 236.7C186.173 236.94 185.927 237.264 185.795 237.672L184.517 236.862C184.793 236.262 185.219 235.794 185.795 235.458C186.383 235.122 187.043 234.954 187.775 234.954C188.903 234.954 189.767 235.266 190.367 235.89C190.979 236.502 191.285 237.378 191.285 238.518V244.296H189.719V243.216C189.011 244.056 188.099 244.476 186.983 244.476ZM187.217 243.144C187.973 243.144 188.579 242.94 189.035 242.532C189.503 242.112 189.737 241.47 189.737 240.606V239.886L187.541 240.21C186.209 240.414 185.543 240.954 185.543 241.83C185.543 242.706 186.101 243.144 187.217 243.144ZM194.345 244.296V230.31H195.893V244.296H194.345ZM201.433 244.476C200.521 244.476 199.789 244.248 199.237 243.792C198.697 243.324 198.427 242.682 198.427 241.866C198.427 240.978 198.715 240.324 199.291 239.904C199.879 239.472 200.713 239.16 201.793 238.968L204.169 238.554V238.122C204.169 237.594 204.001 237.162 203.665 236.826C203.341 236.49 202.867 236.322 202.243 236.322C201.775 236.322 201.355 236.448 200.983 236.7C200.623 236.94 200.377 237.264 200.245 237.672L198.967 236.862C199.243 236.262 199.669 235.794 200.245 235.458C200.833 235.122 201.493 234.954 202.225 234.954C203.353 234.954 204.217 235.266 204.817 235.89C205.429 236.502 205.735 237.378 205.735 238.518V244.296H204.169V243.216C203.461 244.056 202.549 244.476 201.433 244.476ZM201.667 243.144C202.423 243.144 203.029 242.94 203.485 242.532C203.953 242.112 204.187 241.47 204.187 240.606V239.886L201.991 240.21C200.659 240.414 199.993 240.954 199.993 241.83C199.993 242.706 200.551 243.144 201.667 243.144ZM208.615 244.296V235.116H213.025V236.394H210.127V244.296H208.615Z" fill="#083B51"/>
<path d="M13.968 86L4.368 72.128V86H2.16V68.048H4.008L13.656 81.944V68.048H15.84V86H13.968ZM20.16 86V68.048H22.368V86H20.16ZM32.5316 86L24.9956 68.048H27.3956L33.4676 82.592L39.5156 68.048H41.9156L34.3796 86H32.5316ZM46.7664 69.992V75.776H54.6144V77.672H46.7664V84.056H55.6704V86H44.5584V68.048H55.6704V69.992H46.7664ZM69.993 84.056V86H58.785V68.048H60.993V84.056H69.993ZM83.1474 67.808C84.7474 67.808 86.0034 68.256 86.9154 69.152C87.8434 70.032 88.3074 71.224 88.3074 72.728C88.3074 73.736 88.0674 74.584 87.5874 75.272C87.1074 75.944 86.4914 76.424 85.7394 76.712C86.6354 76.92 87.3634 77.392 87.9234 78.128C88.4834 78.864 88.7634 79.8 88.7634 80.936C88.7634 82.552 88.2514 83.84 87.2274 84.8C86.2194 85.76 84.8754 86.24 83.1954 86.24C81.4674 86.24 80.1154 85.776 79.1394 84.848C78.1794 83.904 77.6434 82.608 77.5314 80.96L79.7394 80.84C79.8354 81.944 80.1714 82.792 80.7474 83.384C81.3394 83.976 82.1554 84.272 83.1954 84.272C84.2354 84.272 85.0514 83.976 85.6434 83.384C86.2514 82.776 86.5554 81.944 86.5554 80.888C86.5554 79.848 86.2274 79.056 85.5714 78.512C84.9314 77.968 84.0754 77.696 83.0034 77.696H81.2514V75.752H82.9554C83.8834 75.752 84.6354 75.48 85.2114 74.936C85.8034 74.392 86.0994 73.656 86.0994 72.728C86.0994 71.784 85.8354 71.056 85.3074 70.544C84.7794 70.032 84.0594 69.776 83.1474 69.776C82.2034 69.776 81.4594 70.056 80.9154 70.616C80.3714 71.176 80.0594 71.976 79.9794 73.016L77.8194 72.896C77.8834 71.312 78.3794 70.072 79.3074 69.176C80.2354 68.264 81.5154 67.808 83.1474 67.808Z" fill="#083B51"/>
<path d="M153.384 70.6909L162.506 61.5684" stroke="#083B51" stroke-width="0.556252" stroke-miterlimit="10"/>
<path d="M162.808 64.4742L162.251 64.4594L162.355 61.7152L159.611 61.8191L159.589 61.2554L162.926 61.1367L162.808 64.4742Z" fill="#083B51"/>
<path d="M154.95 88.6914V74.7054H156.498V88.6914H154.95ZM159.715 75.4794C159.919 75.2754 160.159 75.1734 160.435 75.1734C160.711 75.1734 160.951 75.2754 161.155 75.4794C161.359 75.6714 161.461 75.9114 161.461 76.1994C161.461 76.4754 161.359 76.7154 161.155 76.9194C160.951 77.1114 160.711 77.2074 160.435 77.2074C160.147 77.2074 159.901 77.1114 159.697 76.9194C159.505 76.7154 159.409 76.4754 159.409 76.1994C159.409 75.9114 159.511 75.6714 159.715 75.4794ZM159.643 88.6914V79.5114H161.191V88.6914H159.643ZM165.885 80.8974C166.161 80.4294 166.575 80.0574 167.127 79.7814C167.679 79.4934 168.327 79.3494 169.071 79.3494C170.355 79.3494 171.411 79.7814 172.239 80.6454C173.079 81.5094 173.499 82.6674 173.499 84.1194C173.499 85.5714 173.079 86.7294 172.239 87.5934C171.411 88.4454 170.355 88.8714 169.071 88.8714C168.303 88.8714 167.637 88.7214 167.073 88.4214C166.509 88.1094 166.089 87.7014 165.813 87.1974V88.6914H164.337V74.7054H165.885V80.8974ZM168.837 80.6994C167.961 80.6994 167.253 80.9694 166.713 81.5094C166.173 82.0494 165.903 82.8234 165.903 83.8314V84.3714C165.903 85.3794 166.173 86.1594 166.713 86.7114C167.253 87.2514 167.961 87.5214 168.837 87.5214C169.737 87.5214 170.475 87.2214 171.051 86.6214C171.627 86.0214 171.915 85.1814 171.915 84.1014C171.915 83.0334 171.627 82.1994 171.051 81.5994C170.475 80.9994 169.737 80.6994 168.837 80.6994ZM177.052 84.6954C177.1 85.5714 177.388 86.2614 177.916 86.7654C178.444 87.2694 179.116 87.5214 179.932 87.5214C180.604 87.5214 181.162 87.3774 181.606 87.0894C182.05 86.8014 182.35 86.3994 182.506 85.8834L184.054 85.9734C183.862 86.8134 183.394 87.5094 182.65 88.0614C181.906 88.6014 181.012 88.8714 179.968 88.8714C178.624 88.8714 177.526 88.4454 176.674 87.5934C175.834 86.7294 175.414 85.5654 175.414 84.1014C175.414 82.6374 175.834 81.4794 176.674 80.6274C177.514 79.7754 178.6 79.3494 179.932 79.3494C181.24 79.3494 182.266 79.7574 183.01 80.5734C183.766 81.3894 184.144 82.4814 184.144 83.8494V84.6954H177.052ZM179.914 80.6994C179.098 80.6994 178.426 80.9394 177.898 81.4194C177.382 81.8874 177.1 82.5594 177.052 83.4354H182.596C182.572 82.6074 182.332 81.9474 181.876 81.4554C181.42 80.9514 180.766 80.6994 179.914 80.6994ZM186.481 88.6914V79.5114H190.891V80.7894H187.993V88.6914H186.481ZM193.402 88.6914L193.42 80.8614H191.71V79.5114H193.42L193.438 76.3434H195.004L194.986 79.5114H197.452V80.8614H194.986L194.95 87.3414H197.416V88.6914H193.402ZM201.869 88.8714C200.957 88.8714 200.225 88.6434 199.673 88.1874C199.133 87.7194 198.863 87.0774 198.863 86.2614C198.863 85.3734 199.151 84.7194 199.727 84.2994C200.315 83.8674 201.149 83.5554 202.229 83.3634L204.605 82.9494V82.5174C204.605 81.9894 204.437 81.5574 204.101 81.2214C203.777 80.8854 203.303 80.7174 202.679 80.7174C202.211 80.7174 201.791 80.8434 201.419 81.0954C201.059 81.3354 200.813 81.6594 200.681 82.0674L199.403 81.2574C199.679 80.6574 200.105 80.1894 200.681 79.8534C201.269 79.5174 201.929 79.3494 202.661 79.3494C203.789 79.3494 204.653 79.6614 205.253 80.2854C205.865 80.8974 206.171 81.7734 206.171 82.9134V88.6914H204.605V87.6114C203.897 88.4514 202.985 88.8714 201.869 88.8714ZM202.103 87.5394C202.859 87.5394 203.465 87.3354 203.921 86.9274C204.389 86.5074 204.623 85.8654 204.623 85.0014V84.2814L202.427 84.6054C201.095 84.8094 200.429 85.3494 200.429 86.2254C200.429 87.1014 200.987 87.5394 202.103 87.5394ZM216.305 88.6914V87.1974C216.029 87.6894 215.603 88.0914 215.027 88.4034C214.463 88.7154 213.803 88.8714 213.047 88.8714C211.763 88.8714 210.701 88.4454 209.861 87.5934C209.033 86.7294 208.619 85.5714 208.619 84.1194C208.619 82.6674 209.033 81.5094 209.861 80.6454C210.701 79.7814 211.763 79.3494 213.047 79.3494C213.791 79.3494 214.439 79.4934 214.991 79.7814C215.543 80.0694 215.951 80.4414 216.215 80.8974V74.7054H217.763V88.6914H216.305ZM213.263 80.6994C212.363 80.6994 211.625 80.9994 211.049 81.5994C210.473 82.1994 210.185 83.0334 210.185 84.1014C210.185 85.1814 210.473 86.0214 211.049 86.6214C211.625 87.2214 212.363 87.5214 213.263 87.5214C214.139 87.5214 214.847 87.2514 215.387 86.7114C215.939 86.1594 216.215 85.3794 216.215 84.3714V83.8314C216.215 82.8234 215.939 82.0494 215.387 81.5094C214.847 80.9694 214.139 80.6994 213.263 80.6994Z" fill="#083B51"/>
<path d="M318.92 110.357H282V44H348.35V80.7942L318.92 110.357Z" fill="#FE7756"/>
<path d="M406.385 73L400.733 59.536H402.533L407.087 70.444L411.623 59.536H413.423L407.771 73H406.385ZM420.784 73V71.632C420.592 72.052 420.262 72.418 419.794 72.73C419.326 73.03 418.738 73.18 418.03 73.18C417.01 73.18 416.194 72.844 415.582 72.172C414.982 71.488 414.682 70.594 414.682 69.49V63.82H416.23V69.274C416.23 70.03 416.416 70.63 416.788 71.074C417.172 71.506 417.706 71.722 418.39 71.722C419.098 71.722 419.662 71.476 420.082 70.984C420.502 70.492 420.712 69.892 420.712 69.184V63.82H422.26V73H420.784ZM426.414 69.004C426.462 69.88 426.75 70.57 427.278 71.074C427.806 71.578 428.478 71.83 429.294 71.83C429.966 71.83 430.524 71.686 430.968 71.398C431.412 71.11 431.712 70.708 431.868 70.192L433.416 70.282C433.224 71.122 432.756 71.818 432.012 72.37C431.268 72.91 430.374 73.18 429.33 73.18C427.986 73.18 426.888 72.754 426.036 71.902C425.196 71.038 424.776 69.874 424.776 68.41C424.776 66.946 425.196 65.788 426.036 64.936C426.876 64.084 427.962 63.658 429.294 63.658C430.602 63.658 431.628 64.066 432.372 64.882C433.128 65.698 433.506 66.79 433.506 68.158V69.004H426.414ZM429.276 65.008C428.46 65.008 427.788 65.248 427.26 65.728C426.744 66.196 426.462 66.868 426.414 67.744H431.958C431.934 66.916 431.694 66.256 431.238 65.764C430.782 65.26 430.128 65.008 429.276 65.008ZM436.023 73V59.014H437.571V73H436.023ZM443.11 73.18C442.198 73.18 441.466 72.952 440.914 72.496C440.374 72.028 440.104 71.386 440.104 70.57C440.104 69.682 440.392 69.028 440.968 68.608C441.556 68.176 442.39 67.864 443.47 67.672L445.846 67.258V66.826C445.846 66.298 445.678 65.866 445.342 65.53C445.018 65.194 444.544 65.026 443.92 65.026C443.452 65.026 443.032 65.152 442.66 65.404C442.3 65.644 442.054 65.968 441.922 66.376L440.644 65.566C440.92 64.966 441.346 64.498 441.922 64.162C442.51 63.826 443.17 63.658 443.902 63.658C445.03 63.658 445.894 63.97 446.494 64.594C447.106 65.206 447.412 66.082 447.412 67.222V73H445.846V71.92C445.138 72.76 444.226 73.18 443.11 73.18ZM443.344 71.848C444.1 71.848 444.706 71.644 445.162 71.236C445.63 70.816 445.864 70.174 445.864 69.31V68.59L443.668 68.914C442.336 69.118 441.67 69.658 441.67 70.534C441.67 71.41 442.228 71.848 443.344 71.848ZM457.155 73.18C456.243 73.18 455.511 72.952 454.959 72.496C454.419 72.028 454.149 71.386 454.149 70.57C454.149 69.682 454.437 69.028 455.013 68.608C455.601 68.176 456.435 67.864 457.515 67.672L459.891 67.258V66.826C459.891 66.298 459.723 65.866 459.387 65.53C459.063 65.194 458.589 65.026 457.965 65.026C457.497 65.026 457.077 65.152 456.705 65.404C456.345 65.644 456.099 65.968 455.967 66.376L454.689 65.566C454.965 64.966 455.391 64.498 455.967 64.162C456.555 63.826 457.215 63.658 457.947 63.658C459.075 63.658 459.939 63.97 460.539 64.594C461.151 65.206 461.457 66.082 461.457 67.222V73H459.891V71.92C459.183 72.76 458.271 73.18 457.155 73.18ZM457.389 71.848C458.145 71.848 458.751 71.644 459.207 71.236C459.675 70.816 459.909 70.174 459.909 69.31V68.59L457.713 68.914C456.381 69.118 455.715 69.658 455.715 70.534C455.715 71.41 456.273 71.848 457.389 71.848ZM464.517 73V59.014H466.065V73H464.517ZM478.234 63.658C479.518 63.658 480.574 64.09 481.402 64.954C482.242 65.806 482.662 66.958 482.662 68.41C482.662 69.862 482.242 71.02 481.402 71.884C480.574 72.748 479.518 73.18 478.234 73.18C477.49 73.18 476.842 73.042 476.29 72.766C475.738 72.478 475.324 72.1 475.048 71.632V77.59H473.5V63.82H474.976V65.332C475.252 64.828 475.672 64.426 476.236 64.126C476.8 63.814 477.466 63.658 478.234 63.658ZM478 65.008C477.124 65.008 476.416 65.284 475.876 65.836C475.336 66.376 475.066 67.15 475.066 68.158V68.698C475.066 69.694 475.336 70.468 475.876 71.02C476.416 71.56 477.124 71.83 478 71.83C478.9 71.83 479.638 71.53 480.214 70.93C480.79 70.33 481.078 69.496 481.078 68.428C481.078 67.348 480.79 66.508 480.214 65.908C479.638 65.308 478.9 65.008 478 65.008ZM491.219 73V71.632C491.027 72.052 490.697 72.418 490.229 72.73C489.761 73.03 489.173 73.18 488.465 73.18C487.445 73.18 486.629 72.844 486.017 72.172C485.417 71.488 485.117 70.594 485.117 69.49V63.82H486.665V69.274C486.665 70.03 486.851 70.63 487.223 71.074C487.607 71.506 488.141 71.722 488.825 71.722C489.533 71.722 490.097 71.476 490.517 70.984C490.937 70.492 491.147 69.892 491.147 69.184V63.82H492.695V73H491.219ZM500.162 63.658C501.206 63.658 502.058 64 502.718 64.684C503.39 65.368 503.726 66.28 503.726 67.42V73H502.16V67.618C502.16 66.862 501.944 66.256 501.512 65.8C501.092 65.332 500.534 65.098 499.838 65.098C499.118 65.098 498.524 65.344 498.056 65.836C497.6 66.328 497.372 66.928 497.372 67.636V73H495.824V63.82H497.3V65.188C497.54 64.744 497.906 64.378 498.398 64.09C498.89 63.802 499.478 63.658 500.162 63.658ZM507.153 73L507.171 65.17H505.461V63.82H507.171L507.189 60.652H508.755L508.737 63.82H511.203V65.17H508.737L508.701 71.65H511.167V73H507.153ZM513.946 64.972C514.846 64.096 515.974 63.658 517.33 63.658C518.686 63.658 519.808 64.096 520.696 64.972C521.596 65.836 522.046 66.982 522.046 68.41C522.046 69.838 521.596 70.99 520.696 71.866C519.808 72.742 518.686 73.18 517.33 73.18C515.974 73.18 514.846 72.742 513.946 71.866C513.058 70.99 512.614 69.838 512.614 68.41C512.614 66.982 513.058 65.836 513.946 64.972ZM519.58 65.926C518.992 65.314 518.242 65.008 517.33 65.008C516.418 65.008 515.662 65.314 515.062 65.926C514.474 66.538 514.18 67.366 514.18 68.41C514.18 69.454 514.474 70.288 515.062 70.912C515.662 71.524 516.418 71.83 517.33 71.83C518.242 71.83 518.992 71.524 519.58 70.912C520.18 70.288 520.48 69.454 520.48 68.41C520.48 67.366 520.18 66.538 519.58 65.926ZM539.221 63.658C540.241 63.658 541.063 64.006 541.687 64.702C542.323 65.386 542.641 66.286 542.641 67.402V73H541.093V67.618C541.093 66.85 540.889 66.238 540.481 65.782C540.085 65.326 539.545 65.098 538.861 65.098C538.213 65.098 537.679 65.308 537.259 65.728C536.851 66.136 536.617 66.664 536.557 67.312V73H534.991V67.618C534.991 66.862 534.787 66.256 534.379 65.8C533.983 65.332 533.461 65.098 532.813 65.098C532.105 65.098 531.529 65.344 531.085 65.836C530.641 66.328 530.419 66.928 530.419 67.636V73H528.871V63.82H530.347V65.206C530.875 64.174 531.805 63.658 533.137 63.658C533.809 63.658 534.409 63.82 534.937 64.144C535.465 64.456 535.867 64.9 536.143 65.476C536.419 64.924 536.821 64.486 537.349 64.162C537.889 63.826 538.513 63.658 539.221 63.658ZM548.447 62.29L550.301 58.852H552.065L549.689 62.29H548.447ZM548.879 63.658C550.007 63.658 550.871 63.97 551.471 64.594C552.083 65.206 552.389 66.082 552.389 67.222V73H550.823V71.92C550.115 72.76 549.203 73.18 548.087 73.18C547.175 73.18 546.443 72.952 545.891 72.496C545.351 72.028 545.081 71.386 545.081 70.57C545.081 69.682 545.369 69.028 545.945 68.608C546.533 68.176 547.367 67.864 548.447 67.672L550.823 67.258V66.826C550.823 66.298 550.655 65.866 550.319 65.53C549.995 65.194 549.521 65.026 548.897 65.026C548.429 65.026 548.009 65.152 547.637 65.404C547.277 65.644 547.031 65.968 546.899 66.376L545.621 65.566C545.897 64.966 546.323 64.498 546.899 64.162C547.487 63.826 548.147 63.658 548.879 63.658ZM548.645 68.914C547.313 69.118 546.647 69.658 546.647 70.534C546.647 71.41 547.205 71.848 548.321 71.848C549.077 71.848 549.683 71.644 550.139 71.236C550.607 70.816 550.841 70.174 550.841 69.31V68.59L548.645 68.914ZM558.275 63.676C559.259 63.664 560.039 63.916 560.615 64.432C561.191 64.936 561.533 65.602 561.641 66.43L560.093 66.52C559.973 65.5 559.349 64.996 558.221 65.008C557.657 64.996 557.225 65.11 556.925 65.35C556.625 65.59 556.475 65.92 556.475 66.34C556.475 66.448 556.481 66.544 556.493 66.628C556.517 66.712 556.553 66.79 556.601 66.862C556.649 66.934 556.691 67 556.727 67.06C556.775 67.108 556.847 67.156 556.943 67.204C557.051 67.252 557.135 67.294 557.195 67.33C557.267 67.354 557.369 67.384 557.501 67.42C557.645 67.456 557.759 67.486 557.843 67.51C557.927 67.522 558.059 67.552 558.239 67.6C558.419 67.636 558.557 67.666 558.653 67.69C559.745 67.954 560.549 68.272 561.065 68.644C561.581 69.016 561.839 69.58 561.839 70.336C561.839 71.236 561.527 71.938 560.903 72.442C560.279 72.934 559.433 73.18 558.365 73.18C557.333 73.18 556.499 72.94 555.863 72.46C555.227 71.968 554.849 71.278 554.729 70.39L556.277 70.282C556.421 71.314 557.129 71.83 558.401 71.83C558.977 71.83 559.433 71.716 559.769 71.488C560.117 71.248 560.291 70.906 560.291 70.462C560.291 70.018 560.135 69.706 559.823 69.526C559.523 69.334 558.923 69.13 558.023 68.914C557.579 68.806 557.237 68.722 556.997 68.662C556.757 68.59 556.481 68.488 556.169 68.356C555.857 68.224 555.623 68.08 555.467 67.924C555.323 67.756 555.191 67.54 555.071 67.276C554.963 67.012 554.909 66.706 554.909 66.358C554.909 65.542 555.203 64.888 555.791 64.396C556.391 63.904 557.219 63.664 558.275 63.676ZM571.114 73.18C570.202 73.18 569.47 72.952 568.918 72.496C568.378 72.028 568.108 71.386 568.108 70.57C568.108 69.682 568.396 69.028 568.972 68.608C569.56 68.176 570.394 67.864 571.474 67.672L573.85 67.258V66.826C573.85 66.298 573.682 65.866 573.346 65.53C573.022 65.194 572.548 65.026 571.924 65.026C571.456 65.026 571.036 65.152 570.664 65.404C570.304 65.644 570.058 65.968 569.926 66.376L568.648 65.566C568.924 64.966 569.35 64.498 569.926 64.162C570.514 63.826 571.174 63.658 571.906 63.658C573.034 63.658 573.898 63.97 574.498 64.594C575.11 65.206 575.416 66.082 575.416 67.222V73H573.85V71.92C573.142 72.76 572.23 73.18 571.114 73.18ZM571.348 71.848C572.104 71.848 572.71 71.644 573.166 71.236C573.634 70.816 573.868 70.174 573.868 69.31V68.59L571.672 68.914C570.34 69.118 569.674 69.658 569.674 70.534C569.674 71.41 570.232 71.848 571.348 71.848ZM578.476 73V59.014H580.024V73H578.476ZM583.53 73L583.548 65.17H581.838V63.82H583.548L583.566 60.652H585.132L585.114 63.82H587.58V65.17H585.114L585.078 71.65H587.544V73H583.53ZM590.323 64.972C591.223 64.096 592.351 63.658 593.707 63.658C595.063 63.658 596.185 64.096 597.073 64.972C597.973 65.836 598.423 66.982 598.423 68.41C598.423 69.838 597.973 70.99 597.073 71.866C596.185 72.742 595.063 73.18 593.707 73.18C592.351 73.18 591.223 72.742 590.323 71.866C589.435 70.99 588.991 69.838 588.991 68.41C588.991 66.982 589.435 65.836 590.323 64.972ZM595.957 65.926C595.369 65.314 594.619 65.008 593.707 65.008C592.795 65.008 592.039 65.314 591.439 65.926C590.851 66.538 590.557 67.366 590.557 68.41C590.557 69.454 590.851 70.288 591.439 70.912C592.039 71.524 592.795 71.83 593.707 71.83C594.619 71.83 595.369 71.524 595.957 70.912C596.557 70.288 596.857 69.454 596.857 68.41C596.857 67.366 596.557 66.538 595.957 65.926ZM409.013 96V94.506C408.737 94.998 408.311 95.4 407.735 95.712C407.171 96.024 406.511 96.18 405.755 96.18C404.471 96.18 403.409 95.754 402.569 94.902C401.741 94.038 401.327 92.88 401.327 91.428C401.327 89.976 401.741 88.818 402.569 87.954C403.409 87.09 404.471 86.658 405.755 86.658C406.499 86.658 407.147 86.802 407.699 87.09C408.251 87.378 408.659 87.75 408.923 88.206V82.014H410.471V96H409.013ZM405.971 88.008C405.071 88.008 404.333 88.308 403.757 88.908C403.181 89.508 402.893 90.342 402.893 91.41C402.893 92.49 403.181 93.33 403.757 93.93C404.333 94.53 405.071 94.83 405.971 94.83C406.847 94.83 407.555 94.56 408.095 94.02C408.647 93.468 408.923 92.688 408.923 91.68V91.14C408.923 90.132 408.647 89.358 408.095 88.818C407.555 88.278 406.847 88.008 405.971 88.008ZM414.655 92.004C414.703 92.88 414.991 93.57 415.519 94.074C416.047 94.578 416.719 94.83 417.535 94.83C418.207 94.83 418.765 94.686 419.209 94.398C419.653 94.11 419.953 93.708 420.109 93.192L421.657 93.282C421.465 94.122 420.997 94.818 420.253 95.37C419.509 95.91 418.615 96.18 417.571 96.18C416.227 96.18 415.129 95.754 414.277 94.902C413.437 94.038 413.017 92.874 413.017 91.41C413.017 89.946 413.437 88.788 414.277 87.936C415.117 87.084 416.203 86.658 417.535 86.658C418.843 86.658 419.869 87.066 420.613 87.882C421.369 88.698 421.747 89.79 421.747 91.158V92.004H414.655ZM417.517 88.008C416.701 88.008 416.029 88.248 415.501 88.728C414.985 89.196 414.703 89.868 414.655 90.744H420.199C420.175 89.916 419.935 89.256 419.479 88.764C419.023 88.26 418.369 88.008 417.517 88.008ZM433.201 96L433.219 88.17H431.509V86.82H433.219L433.237 83.652H434.803L434.785 86.82H437.251V88.17H434.785L434.749 94.65H437.215V96H433.201ZM445.305 96V94.632C445.113 95.052 444.783 95.418 444.315 95.73C443.847 96.03 443.259 96.18 442.551 96.18C441.531 96.18 440.715 95.844 440.103 95.172C439.503 94.488 439.203 93.594 439.203 92.49V86.82H440.751V92.274C440.751 93.03 440.937 93.63 441.309 94.074C441.693 94.506 442.227 94.722 442.911 94.722C443.619 94.722 444.183 94.476 444.603 93.984C445.023 93.492 445.233 92.892 445.233 92.184V86.82H446.781V96H445.305ZM458.105 86.658C459.197 86.658 460.121 86.97 460.877 87.594C461.645 88.206 462.095 89.04 462.227 90.096L460.715 90.222C460.631 89.538 460.349 88.998 459.869 88.602C459.389 88.194 458.801 87.99 458.105 87.99C457.229 87.99 456.521 88.296 455.981 88.908C455.441 89.508 455.171 90.342 455.171 91.41C455.171 92.478 455.441 93.318 455.981 93.93C456.533 94.53 457.241 94.83 458.105 94.83C458.825 94.83 459.413 94.644 459.869 94.272C460.337 93.9 460.625 93.39 460.733 92.742L462.245 92.886C462.077 93.906 461.621 94.71 460.877 95.298C460.133 95.886 459.209 96.18 458.105 96.18C456.785 96.18 455.699 95.754 454.847 94.902C454.007 94.05 453.587 92.886 453.587 91.41C453.587 89.934 454.007 88.776 454.847 87.936C455.687 87.084 456.773 86.658 458.105 86.658ZM464.425 96V86.82H468.835V88.098H465.937V96H464.425ZM471.643 92.004C471.691 92.88 471.979 93.57 472.507 94.074C473.035 94.578 473.707 94.83 474.523 94.83C475.195 94.83 475.753 94.686 476.197 94.398C476.641 94.11 476.941 93.708 477.097 93.192L478.645 93.282C478.453 94.122 477.985 94.818 477.241 95.37C476.497 95.91 475.603 96.18 474.559 96.18C473.215 96.18 472.117 95.754 471.265 94.902C470.425 94.038 470.005 92.874 470.005 91.41C470.005 89.946 470.425 88.788 471.265 87.936C472.105 87.084 473.191 86.658 474.523 86.658C475.831 86.658 476.857 87.066 477.601 87.882C478.357 88.698 478.735 89.79 478.735 91.158V92.004H471.643ZM474.505 88.008C473.689 88.008 473.017 88.248 472.489 88.728C471.973 89.196 471.691 89.868 471.643 90.744H477.187C477.163 89.916 476.923 89.256 476.467 88.764C476.011 88.26 475.357 88.008 474.505 88.008ZM485.158 86.658C486.25 86.658 487.174 86.97 487.93 87.594C488.698 88.206 489.148 89.04 489.28 90.096L487.768 90.222C487.684 89.538 487.402 88.998 486.922 88.602C486.442 88.194 485.854 87.99 485.158 87.99C484.282 87.99 483.574 88.296 483.034 88.908C482.494 89.508 482.224 90.342 482.224 91.41C482.224 92.478 482.494 93.318 483.034 93.93C483.586 94.53 484.294 94.83 485.158 94.83C485.878 94.83 486.466 94.644 486.922 94.272C487.39 93.9 487.678 93.39 487.786 92.742L489.298 92.886C489.13 93.906 488.674 94.71 487.93 95.298C487.186 95.886 486.262 96.18 485.158 96.18C483.838 96.18 482.752 95.754 481.9 94.902C481.06 94.05 480.64 92.886 480.64 91.41C480.64 89.934 481.06 88.776 481.9 87.936C482.74 87.084 483.826 86.658 485.158 86.658ZM491.73 82.788C491.934 82.584 492.174 82.482 492.45 82.482C492.726 82.482 492.966 82.584 493.17 82.788C493.374 82.98 493.476 83.22 493.476 83.508C493.476 83.784 493.374 84.024 493.17 84.228C492.966 84.42 492.726 84.516 492.45 84.516C492.162 84.516 491.916 84.42 491.712 84.228C491.52 84.024 491.424 83.784 491.424 83.508C491.424 83.22 491.526 82.98 491.73 82.788ZM491.658 96V86.82H493.206V96H491.658ZM506.701 86.658C507.721 86.658 508.543 87.006 509.167 87.702C509.803 88.386 510.121 89.286 510.121 90.402V96H508.573V90.618C508.573 89.85 508.369 89.238 507.961 88.782C507.565 88.326 507.025 88.098 506.341 88.098C505.693 88.098 505.159 88.308 504.739 88.728C504.331 89.136 504.097 89.664 504.037 90.312V96H502.471V90.618C502.471 89.862 502.267 89.256 501.859 88.8C501.463 88.332 500.941 88.098 500.293 88.098C499.585 88.098 499.009 88.344 498.565 88.836C498.121 89.328 497.899 89.928 497.899 90.636V96H496.351V86.82H497.827V88.206C498.355 87.174 499.285 86.658 500.617 86.658C501.289 86.658 501.889 86.82 502.417 87.144C502.945 87.456 503.347 87.9 503.623 88.476C503.899 87.924 504.301 87.486 504.829 87.162C505.369 86.826 505.993 86.658 506.701 86.658ZM513.245 82.788C513.449 82.584 513.689 82.482 513.965 82.482C514.241 82.482 514.481 82.584 514.685 82.788C514.889 82.98 514.991 83.22 514.991 83.508C514.991 83.784 514.889 84.024 514.685 84.228C514.481 84.42 514.241 84.516 513.965 84.516C513.677 84.516 513.431 84.42 513.227 84.228C513.035 84.024 512.939 83.784 512.939 83.508C512.939 83.22 513.041 82.98 513.245 82.788ZM513.173 96V86.82H514.721V96H513.173ZM518.893 92.004C518.941 92.88 519.229 93.57 519.757 94.074C520.285 94.578 520.957 94.83 521.773 94.83C522.445 94.83 523.003 94.686 523.447 94.398C523.891 94.11 524.191 93.708 524.347 93.192L525.895 93.282C525.703 94.122 525.235 94.818 524.491 95.37C523.747 95.91 522.853 96.18 521.809 96.18C520.465 96.18 519.367 95.754 518.515 94.902C517.675 94.038 517.255 92.874 517.255 91.41C517.255 89.946 517.675 88.788 518.515 87.936C519.355 87.084 520.441 86.658 521.773 86.658C523.081 86.658 524.107 87.066 524.851 87.882C525.607 88.698 525.985 89.79 525.985 91.158V92.004H518.893ZM521.755 88.008C520.939 88.008 520.267 88.248 519.739 88.728C519.223 89.196 518.941 89.868 518.893 90.744H524.437C524.413 89.916 524.173 89.256 523.717 88.764C523.261 88.26 522.607 88.008 521.755 88.008ZM532.84 86.658C533.884 86.658 534.736 87 535.396 87.684C536.068 88.368 536.404 89.28 536.404 90.42V96H534.838V90.618C534.838 89.862 534.622 89.256 534.19 88.8C533.77 88.332 533.212 88.098 532.516 88.098C531.796 88.098 531.202 88.344 530.734 88.836C530.278 89.328 530.05 89.928 530.05 90.636V96H528.502V86.82H529.978V88.188C530.218 87.744 530.584 87.378 531.076 87.09C531.568 86.802 532.156 86.658 532.84 86.658ZM539.83 96L539.848 88.17H538.138V86.82H539.848L539.866 83.652H541.432L541.414 86.82H543.88V88.17H541.414L541.378 94.65H543.844V96H539.83ZM546.624 87.972C547.524 87.096 548.652 86.658 550.008 86.658C551.364 86.658 552.486 87.096 553.374 87.972C554.274 88.836 554.724 89.982 554.724 91.41C554.724 92.838 554.274 93.99 553.374 94.866C552.486 95.742 551.364 96.18 550.008 96.18C548.652 96.18 547.524 95.742 546.624 94.866C545.736 93.99 545.292 92.838 545.292 91.41C545.292 89.982 545.736 88.836 546.624 87.972ZM552.258 88.926C551.67 88.314 550.92 88.008 550.008 88.008C549.096 88.008 548.34 88.314 547.74 88.926C547.152 89.538 546.858 90.366 546.858 91.41C546.858 92.454 547.152 93.288 547.74 93.912C548.34 94.524 549.096 94.83 550.008 94.83C550.92 94.83 551.67 94.524 552.258 93.912C552.858 93.288 553.158 92.454 553.158 91.41C553.158 90.366 552.858 89.538 552.258 88.926Z" fill="#083B51"/>
<path d="M669.567 314.366L663.915 300.902H665.715L670.269 311.81L674.805 300.902H676.605L670.953 314.366H669.567ZM679.626 314.546C678.714 314.546 677.982 314.318 677.43 313.862C676.89 313.394 676.62 312.752 676.62 311.936C676.62 311.048 676.908 310.394 677.484 309.974C678.072 309.542 678.906 309.23 679.986 309.038L682.362 308.624V308.192C682.362 307.664 682.194 307.232 681.858 306.896C681.534 306.56 681.06 306.392 680.436 306.392C679.968 306.392 679.548 306.518 679.176 306.77C678.816 307.01 678.57 307.334 678.438 307.742L677.16 306.932C677.436 306.332 677.862 305.864 678.438 305.528C679.026 305.192 679.686 305.024 680.418 305.024C681.546 305.024 682.41 305.336 683.01 305.96C683.622 306.572 683.928 307.448 683.928 308.588V314.366H682.362V313.286C681.654 314.126 680.742 314.546 679.626 314.546ZM679.86 313.214C680.616 313.214 681.222 313.01 681.678 312.602C682.146 312.182 682.38 311.54 682.38 310.676V309.956L680.184 310.28C678.852 310.484 678.186 311.024 678.186 311.9C678.186 312.776 678.744 313.214 679.86 313.214ZM686.988 314.366V300.38H688.536V314.366H686.988ZM691.753 301.154C691.957 300.95 692.197 300.848 692.473 300.848C692.749 300.848 692.989 300.95 693.193 301.154C693.397 301.346 693.499 301.586 693.499 301.874C693.499 302.15 693.397 302.39 693.193 302.594C692.989 302.786 692.749 302.882 692.473 302.882C692.185 302.882 691.939 302.786 691.735 302.594C691.543 302.39 691.447 302.15 691.447 301.874C691.447 301.586 691.549 301.346 691.753 301.154ZM691.681 314.366V305.186H693.229V314.366H691.681ZM703.449 314.366V312.872C703.173 313.364 702.747 313.766 702.171 314.078C701.607 314.39 700.947 314.546 700.191 314.546C698.907 314.546 697.845 314.12 697.005 313.268C696.177 312.404 695.763 311.246 695.763 309.794C695.763 308.342 696.177 307.184 697.005 306.32C697.845 305.456 698.907 305.024 700.191 305.024C700.935 305.024 701.583 305.168 702.135 305.456C702.687 305.744 703.095 306.116 703.359 306.572V300.38H704.907V314.366H703.449ZM700.407 306.374C699.507 306.374 698.769 306.674 698.193 307.274C697.617 307.874 697.329 308.708 697.329 309.776C697.329 310.856 697.617 311.696 698.193 312.296C698.769 312.896 699.507 313.196 700.407 313.196C701.283 313.196 701.991 312.926 702.531 312.386C703.083 311.834 703.359 311.054 703.359 310.046V309.506C703.359 308.498 703.083 307.724 702.531 307.184C701.991 306.644 701.283 306.374 700.407 306.374ZM710.458 314.546C709.546 314.546 708.814 314.318 708.262 313.862C707.722 313.394 707.452 312.752 707.452 311.936C707.452 311.048 707.74 310.394 708.316 309.974C708.904 309.542 709.738 309.23 710.818 309.038L713.194 308.624V308.192C713.194 307.664 713.026 307.232 712.69 306.896C712.366 306.56 711.892 306.392 711.268 306.392C710.8 306.392 710.38 306.518 710.008 306.77C709.648 307.01 709.402 307.334 709.27 307.742L707.992 306.932C708.268 306.332 708.694 305.864 709.27 305.528C709.858 305.192 710.518 305.024 711.25 305.024C712.378 305.024 713.242 305.336 713.842 305.96C714.454 306.572 714.76 307.448 714.76 308.588V314.366H713.194V313.286C712.486 314.126 711.574 314.546 710.458 314.546ZM710.692 313.214C711.448 313.214 712.054 313.01 712.51 312.602C712.978 312.182 713.212 311.54 713.212 310.676V309.956L711.016 310.28C709.684 310.484 709.018 311.024 709.018 311.9C709.018 312.776 709.576 313.214 710.692 313.214ZM721.726 305.024C722.818 305.024 723.742 305.336 724.498 305.96C725.266 306.572 725.716 307.406 725.848 308.462L724.336 308.588C724.252 307.904 723.97 307.364 723.49 306.968C723.01 306.56 722.422 306.356 721.726 306.356C720.85 306.356 720.142 306.662 719.602 307.274C719.062 307.874 718.792 308.708 718.792 309.776C718.792 310.844 719.062 311.684 719.602 312.296C720.154 312.896 720.862 313.196 721.726 313.196C722.446 313.196 723.034 313.01 723.49 312.638C723.958 312.266 724.246 311.756 724.354 311.108L725.866 311.252C725.698 312.272 725.242 313.076 724.498 313.664C723.754 314.252 722.83 314.546 721.726 314.546C720.406 314.546 719.32 314.12 718.468 313.268C717.628 312.416 717.208 311.252 717.208 309.776C717.208 308.3 717.628 307.142 718.468 306.302C719.308 305.45 720.394 305.024 721.726 305.024ZM728.298 301.154C728.502 300.95 728.742 300.848 729.018 300.848C729.294 300.848 729.534 300.95 729.738 301.154C729.942 301.346 730.044 301.586 730.044 301.874C730.044 302.15 729.942 302.39 729.738 302.594C729.534 302.786 729.294 302.882 729.018 302.882C728.73 302.882 728.484 302.786 728.28 302.594C728.088 302.39 727.992 302.15 727.992 301.874C727.992 301.586 728.094 301.346 728.298 301.154ZM728.226 314.366V305.186H729.774V314.366H728.226ZM736.358 303.656L738.212 300.218H739.976L737.6 303.656H736.358ZM733.64 306.338C734.54 305.462 735.668 305.024 737.024 305.024C738.38 305.024 739.502 305.462 740.39 306.338C741.29 307.202 741.74 308.348 741.74 309.776C741.74 311.204 741.29 312.356 740.39 313.232C739.502 314.108 738.38 314.546 737.024 314.546C735.668 314.546 734.54 314.108 733.64 313.232C732.752 312.356 732.308 311.204 732.308 309.776C732.308 308.348 732.752 307.202 733.64 306.338ZM739.274 307.292C738.686 306.68 737.936 306.374 737.024 306.374C736.112 306.374 735.356 306.68 734.756 307.292C734.168 307.904 733.874 308.732 733.874 309.776C733.874 310.82 734.168 311.654 734.756 312.278C735.356 312.89 736.112 313.196 737.024 313.196C737.936 313.196 738.686 312.89 739.274 312.278C739.874 311.654 740.174 310.82 740.174 309.776C740.174 308.732 739.874 307.904 739.274 307.292ZM748.613 305.024C749.657 305.024 750.509 305.366 751.169 306.05C751.841 306.734 752.177 307.646 752.177 308.786V314.366H750.611V308.984C750.611 308.228 750.395 307.622 749.963 307.166C749.543 306.698 748.985 306.464 748.289 306.464C747.569 306.464 746.975 306.71 746.507 307.202C746.051 307.694 745.823 308.294 745.823 309.002V314.366H744.275V305.186H745.751V306.554C745.991 306.11 746.357 305.744 746.849 305.456C747.341 305.168 747.929 305.024 748.613 305.024Z" fill="#083B51"/>
<path d="M781.433 271.25C782.033 271.25 782.537 271.46 782.945 271.88C783.365 272.3 783.575 272.81 783.575 273.41C783.575 274.022 783.365 274.538 782.945 274.958C782.537 275.378 782.033 275.588 781.433 275.588C780.821 275.588 780.305 275.378 779.885 274.958C779.465 274.538 779.255 274.022 779.255 273.41C779.255 272.81 779.465 272.3 779.885 271.88C780.305 271.46 780.821 271.25 781.433 271.25ZM800.933 278L795.281 264.536H797.081L801.635 275.444L806.171 264.536H807.971L802.319 278H800.933ZM809.501 274.004C809.549 274.88 809.837 275.57 810.365 276.074C810.893 276.578 811.565 276.83 812.381 276.83C813.053 276.83 813.611 276.686 814.055 276.398C814.499 276.11 814.799 275.708 814.955 275.192L816.503 275.282C816.311 276.122 815.843 276.818 815.099 277.37C814.355 277.91 813.461 278.18 812.417 278.18C811.073 278.18 809.975 277.754 809.123 276.902C808.283 276.038 807.863 274.874 807.863 273.41C807.863 271.946 808.283 270.788 809.123 269.936C809.963 269.084 811.049 268.658 812.381 268.658C813.689 268.658 814.715 269.066 815.459 269.882C816.215 270.698 816.593 271.79 816.593 273.158V274.004H809.501ZM812.363 270.008C811.547 270.008 810.875 270.248 810.347 270.728C809.831 271.196 809.549 271.868 809.501 272.744H815.045C815.021 271.916 814.781 271.256 814.325 270.764C813.869 270.26 813.215 270.008 812.363 270.008ZM823.448 268.658C824.492 268.658 825.344 269 826.004 269.684C826.676 270.368 827.012 271.28 827.012 272.42V278H825.446V272.618C825.446 271.862 825.23 271.256 824.798 270.8C824.378 270.332 823.82 270.098 823.124 270.098C822.404 270.098 821.81 270.344 821.342 270.836C820.886 271.328 820.658 271.928 820.658 272.636V278H819.11V268.82H820.586V270.188C820.826 269.744 821.192 269.378 821.684 269.09C822.176 268.802 822.764 268.658 823.448 268.658ZM830.439 278L830.457 270.17H828.747V268.82H830.457L830.475 265.652H832.041L832.023 268.82H834.489V270.17H832.023L831.987 276.65H834.453V278H830.439ZM838.906 278.18C837.994 278.18 837.262 277.952 836.71 277.496C836.17 277.028 835.9 276.386 835.9 275.57C835.9 274.682 836.188 274.028 836.764 273.608C837.352 273.176 838.186 272.864 839.266 272.672L841.642 272.258V271.826C841.642 271.298 841.474 270.866 841.138 270.53C840.814 270.194 840.34 270.026 839.716 270.026C839.248 270.026 838.828 270.152 838.456 270.404C838.096 270.644 837.85 270.968 837.718 271.376L836.44 270.566C836.716 269.966 837.142 269.498 837.718 269.162C838.306 268.826 838.966 268.658 839.698 268.658C840.826 268.658 841.69 268.97 842.29 269.594C842.902 270.206 843.208 271.082 843.208 272.222V278H841.642V276.92C840.934 277.76 840.022 278.18 838.906 278.18ZM839.14 276.848C839.896 276.848 840.502 276.644 840.958 276.236C841.426 275.816 841.66 275.174 841.66 274.31V273.59L839.464 273.914C838.132 274.118 837.466 274.658 837.466 275.534C837.466 276.41 838.024 276.848 839.14 276.848ZM849.094 268.676C850.078 268.664 850.858 268.916 851.434 269.432C852.01 269.936 852.352 270.602 852.46 271.43L850.912 271.52C850.792 270.5 850.168 269.996 849.04 270.008C848.476 269.996 848.044 270.11 847.744 270.35C847.444 270.59 847.294 270.92 847.294 271.34C847.294 271.448 847.3 271.544 847.312 271.628C847.336 271.712 847.372 271.79 847.42 271.862C847.468 271.934 847.51 272 847.546 272.06C847.594 272.108 847.666 272.156 847.762 272.204C847.87 272.252 847.954 272.294 848.014 272.33C848.086 272.354 848.188 272.384 848.32 272.42C848.464 272.456 848.578 272.486 848.662 272.51C848.746 272.522 848.878 272.552 849.058 272.6C849.238 272.636 849.376 272.666 849.472 272.69C850.564 272.954 851.368 273.272 851.884 273.644C852.4 274.016 852.658 274.58 852.658 275.336C852.658 276.236 852.346 276.938 851.722 277.442C851.098 277.934 850.252 278.18 849.184 278.18C848.152 278.18 847.318 277.94 846.682 277.46C846.046 276.968 845.668 276.278 845.548 275.39L847.096 275.282C847.24 276.314 847.948 276.83 849.22 276.83C849.796 276.83 850.252 276.716 850.588 276.488C850.936 276.248 851.11 275.906 851.11 275.462C851.11 275.018 850.954 274.706 850.642 274.526C850.342 274.334 849.742 274.13 848.842 273.914C848.398 273.806 848.056 273.722 847.816 273.662C847.576 273.59 847.3 273.488 846.988 273.356C846.676 273.224 846.442 273.08 846.286 272.924C846.142 272.756 846.01 272.54 845.89 272.276C845.782 272.012 845.728 271.706 845.728 271.358C845.728 270.542 846.022 269.888 846.61 269.396C847.21 268.904 848.038 268.664 849.094 268.676Z" fill="#083B51"/>
<path d="M781.433 307.616C782.033 307.616 782.537 307.826 782.945 308.246C783.365 308.666 783.575 309.176 783.575 309.776C783.575 310.388 783.365 310.904 782.945 311.324C782.537 311.744 782.033 311.954 781.433 311.954C780.821 311.954 780.305 311.744 779.885 311.324C779.465 310.904 779.255 310.388 779.255 309.776C779.255 309.176 779.465 308.666 779.885 308.246C780.305 307.826 780.821 307.616 781.433 307.616ZM801.815 300.902C803.039 300.902 804.035 301.256 804.803 301.964C805.571 302.672 805.955 303.68 805.955 304.988C805.955 306.284 805.571 307.286 804.803 307.994C804.035 308.702 803.039 309.056 801.815 309.056H798.197V314.366H796.541V300.902H801.815ZM798.179 307.598H801.617C802.385 307.598 803.015 307.376 803.507 306.932C804.011 306.476 804.263 305.828 804.263 304.988C804.263 304.136 804.011 303.488 803.507 303.044C803.015 302.588 802.385 302.36 801.617 302.36H798.179V307.598ZM807.996 314.366V305.186H812.406V306.464H809.508V314.366H807.996ZM814.908 306.338C815.808 305.462 816.936 305.024 818.292 305.024C819.648 305.024 820.77 305.462 821.658 306.338C822.558 307.202 823.008 308.348 823.008 309.776C823.008 311.204 822.558 312.356 821.658 313.232C820.77 314.108 819.648 314.546 818.292 314.546C816.936 314.546 815.808 314.108 814.908 313.232C814.02 312.356 813.576 311.204 813.576 309.776C813.576 308.348 814.02 307.202 814.908 306.338ZM820.542 307.292C819.954 306.68 819.204 306.374 818.292 306.374C817.38 306.374 816.624 306.68 816.024 307.292C815.436 307.904 815.142 308.732 815.142 309.776C815.142 310.82 815.436 311.654 816.024 312.278C816.624 312.89 817.38 313.196 818.292 313.196C819.204 313.196 819.954 312.89 820.542 312.278C821.142 311.654 821.442 310.82 821.442 309.776C821.442 308.732 821.142 307.904 820.542 307.292ZM829.45 305.024C830.542 305.024 831.466 305.336 832.222 305.96C832.99 306.572 833.44 307.406 833.572 308.462L832.06 308.588C831.976 307.904 831.694 307.364 831.214 306.968C830.734 306.56 830.146 306.356 829.45 306.356C828.574 306.356 827.866 306.662 827.326 307.274C826.786 307.874 826.516 308.708 826.516 309.776C826.516 310.844 826.786 311.684 827.326 312.296C827.878 312.896 828.586 313.196 829.45 313.196C830.17 313.196 830.758 313.01 831.214 312.638C831.682 312.266 831.97 311.756 832.078 311.108L833.59 311.252C833.422 312.272 832.966 313.076 832.222 313.664C831.478 314.252 830.554 314.546 829.45 314.546C828.13 314.546 827.044 314.12 826.192 313.268C825.352 312.416 824.932 311.252 824.932 309.776C824.932 308.3 825.352 307.142 826.192 306.302C827.032 305.45 828.118 305.024 829.45 305.024ZM836.976 310.37C837.024 311.246 837.312 311.936 837.84 312.44C838.368 312.944 839.04 313.196 839.856 313.196C840.528 313.196 841.086 313.052 841.53 312.764C841.974 312.476 842.274 312.074 842.43 311.558L843.978 311.648C843.786 312.488 843.318 313.184 842.574 313.736C841.83 314.276 840.936 314.546 839.892 314.546C838.548 314.546 837.45 314.12 836.598 313.268C835.758 312.404 835.338 311.24 835.338 309.776C835.338 308.312 835.758 307.154 836.598 306.302C837.438 305.45 838.524 305.024 839.856 305.024C841.164 305.024 842.19 305.432 842.934 306.248C843.69 307.064 844.068 308.156 844.068 309.524V310.37H836.976ZM839.838 306.374C839.022 306.374 838.35 306.614 837.822 307.094C837.306 307.562 837.024 308.234 836.976 309.11H842.52C842.496 308.282 842.256 307.622 841.8 307.13C841.344 306.626 840.69 306.374 839.838 306.374ZM849.411 305.042C850.395 305.03 851.175 305.282 851.751 305.798C852.327 306.302 852.669 306.968 852.777 307.796L851.229 307.886C851.109 306.866 850.485 306.362 849.357 306.374C848.793 306.362 848.361 306.476 848.061 306.716C847.761 306.956 847.611 307.286 847.611 307.706C847.611 307.814 847.617 307.91 847.629 307.994C847.653 308.078 847.689 308.156 847.737 308.228C847.785 308.3 847.827 308.366 847.863 308.426C847.911 308.474 847.983 308.522 848.079 308.57C848.187 308.618 848.271 308.66 848.331 308.696C848.403 308.72 848.505 308.75 848.637 308.786C848.781 308.822 848.895 308.852 848.979 308.876C849.063 308.888 849.195 308.918 849.375 308.966C849.555 309.002 849.693 309.032 849.789 309.056C850.881 309.32 851.685 309.638 852.201 310.01C852.717 310.382 852.975 310.946 852.975 311.702C852.975 312.602 852.663 313.304 852.039 313.808C851.415 314.3 850.569 314.546 849.501 314.546C848.469 314.546 847.635 314.306 846.999 313.826C846.363 313.334 845.985 312.644 845.865 311.756L847.413 311.648C847.557 312.68 848.265 313.196 849.537 313.196C850.113 313.196 850.569 313.082 850.905 312.854C851.253 312.614 851.427 312.272 851.427 311.828C851.427 311.384 851.271 311.072 850.959 310.892C850.659 310.7 850.059 310.496 849.159 310.28C848.715 310.172 848.373 310.088 848.133 310.028C847.893 309.956 847.617 309.854 847.305 309.722C846.993 309.59 846.759 309.446 846.603 309.29C846.459 309.122 846.327 308.906 846.207 308.642C846.099 308.378 846.045 308.072 846.045 307.724C846.045 306.908 846.339 306.254 846.927 305.762C847.527 305.27 848.355 305.03 849.411 305.042ZM856.287 306.338C857.187 305.462 858.315 305.024 859.671 305.024C861.027 305.024 862.149 305.462 863.037 306.338C863.937 307.202 864.387 308.348 864.387 309.776C864.387 311.204 863.937 312.356 863.037 313.232C862.149 314.108 861.027 314.546 859.671 314.546C858.315 314.546 857.187 314.108 856.287 313.232C855.399 312.356 854.955 311.204 854.955 309.776C854.955 308.348 855.399 307.202 856.287 306.338ZM861.921 307.292C861.333 306.68 860.583 306.374 859.671 306.374C858.759 306.374 858.003 306.68 857.403 307.292C856.815 307.904 856.521 308.732 856.521 309.776C856.521 310.82 856.815 311.654 857.403 312.278C858.003 312.89 858.759 313.196 859.671 313.196C860.583 313.196 861.333 312.89 861.921 312.278C862.521 311.654 862.821 310.82 862.821 309.776C862.821 308.732 862.521 307.904 861.921 307.292ZM869.748 305.042C870.732 305.03 871.512 305.282 872.088 305.798C872.664 306.302 873.006 306.968 873.114 307.796L871.566 307.886C871.446 306.866 870.822 306.362 869.694 306.374C869.13 306.362 868.698 306.476 868.398 306.716C868.098 306.956 867.948 307.286 867.948 307.706C867.948 307.814 867.954 307.91 867.966 307.994C867.99 308.078 868.026 308.156 868.074 308.228C868.122 308.3 868.164 308.366 868.2 308.426C868.248 308.474 868.32 308.522 868.416 308.57C868.524 308.618 868.608 308.66 868.668 308.696C868.74 308.72 868.842 308.75 868.974 308.786C869.118 308.822 869.232 308.852 869.316 308.876C869.4 308.888 869.532 308.918 869.712 308.966C869.892 309.002 870.03 309.032 870.126 309.056C871.218 309.32 872.022 309.638 872.538 310.01C873.054 310.382 873.312 310.946 873.312 311.702C873.312 312.602 873 313.304 872.376 313.808C871.752 314.3 870.906 314.546 869.838 314.546C868.806 314.546 867.972 314.306 867.336 313.826C866.7 313.334 866.322 312.644 866.202 311.756L867.75 311.648C867.894 312.68 868.602 313.196 869.874 313.196C870.45 313.196 870.906 313.082 871.242 312.854C871.59 312.614 871.764 312.272 871.764 311.828C871.764 311.384 871.608 311.072 871.296 310.892C870.996 310.7 870.396 310.496 869.496 310.28C869.052 310.172 868.71 310.088 868.47 310.028C868.23 309.956 867.954 309.854 867.642 309.722C867.33 309.59 867.096 309.446 866.94 309.29C866.796 309.122 866.664 308.906 866.544 308.642C866.436 308.378 866.382 308.072 866.382 307.724C866.382 306.908 866.676 306.254 867.264 305.762C867.864 305.27 868.692 305.03 869.748 305.042Z" fill="#083B51"/>
<path d="M781.433 343.983C782.033 343.983 782.537 344.193 782.945 344.613C783.365 345.033 783.575 345.543 783.575 346.143C783.575 346.755 783.365 347.271 782.945 347.691C782.537 348.111 782.033 348.321 781.433 348.321C780.821 348.321 780.305 348.111 779.885 347.691C779.465 347.271 779.255 346.755 779.255 346.143C779.255 345.543 779.465 345.033 779.885 344.613C780.305 344.193 780.821 343.983 781.433 343.983ZM798.197 338.727V343.065H804.083V344.487H798.197V349.275H804.875V350.733H796.541V337.269H804.875V338.727H798.197ZM810.973 341.391C811.729 341.391 812.389 341.547 812.953 341.859C813.529 342.171 813.955 342.573 814.231 343.065V341.553H815.689V355.323H814.141V349.365C813.877 349.821 813.469 350.193 812.917 350.481C812.365 350.769 811.717 350.913 810.973 350.913C809.689 350.913 808.627 350.481 807.787 349.617C806.959 348.753 806.545 347.595 806.545 346.143C806.545 344.691 806.959 343.539 807.787 342.687C808.627 341.823 809.689 341.391 810.973 341.391ZM811.189 342.741C810.289 342.741 809.551 343.041 808.975 343.641C808.399 344.241 808.111 345.081 808.111 346.161C808.111 347.229 808.399 348.063 808.975 348.663C809.551 349.263 810.289 349.563 811.189 349.563C812.065 349.563 812.773 349.293 813.313 348.753C813.865 348.213 814.141 347.439 814.141 346.431V345.891C814.141 344.883 813.865 344.109 813.313 343.569C812.773 343.017 812.065 342.741 811.189 342.741ZM824.876 350.733V349.365C824.684 349.785 824.354 350.151 823.886 350.463C823.418 350.763 822.83 350.913 822.122 350.913C821.102 350.913 820.286 350.577 819.674 349.905C819.074 349.221 818.774 348.327 818.774 347.223V341.553H820.322V347.007C820.322 347.763 820.508 348.363 820.88 348.807C821.264 349.239 821.798 349.455 822.482 349.455C823.19 349.455 823.754 349.209 824.174 348.717C824.594 348.225 824.804 347.625 824.804 346.917V341.553H826.352V350.733H824.876ZM829.553 337.521C829.757 337.317 829.997 337.215 830.273 337.215C830.549 337.215 830.789 337.317 830.993 337.521C831.197 337.713 831.299 337.953 831.299 338.241C831.299 338.517 831.197 338.757 830.993 338.961C830.789 339.153 830.549 339.249 830.273 339.249C829.985 339.249 829.739 339.153 829.535 338.961C829.343 338.757 829.247 338.517 829.247 338.241C829.247 337.953 829.349 337.713 829.553 337.521ZM829.481 350.733V341.553H831.029V350.733H829.481ZM838.908 341.391C840.192 341.391 841.248 341.823 842.076 342.687C842.916 343.539 843.336 344.691 843.336 346.143C843.336 347.595 842.916 348.753 842.076 349.617C841.248 350.481 840.192 350.913 838.908 350.913C838.164 350.913 837.516 350.775 836.964 350.499C836.412 350.211 835.998 349.833 835.722 349.365V355.323H834.174V341.553H835.65V343.065C835.926 342.561 836.346 342.159 836.91 341.859C837.474 341.547 838.14 341.391 838.908 341.391ZM838.674 342.741C837.798 342.741 837.09 343.017 836.55 343.569C836.01 344.109 835.74 344.883 835.74 345.891V346.431C835.74 347.427 836.01 348.201 836.55 348.753C837.09 349.293 837.798 349.563 838.674 349.563C839.574 349.563 840.312 349.263 840.888 348.663C841.464 348.063 841.752 347.229 841.752 346.161C841.752 345.081 841.464 344.241 840.888 343.641C840.312 343.041 839.574 342.741 838.674 342.741ZM846.584 342.705C847.484 341.829 848.612 341.391 849.968 341.391C851.324 341.391 852.446 341.829 853.334 342.705C854.234 343.569 854.684 344.715 854.684 346.143C854.684 347.571 854.234 348.723 853.334 349.599C852.446 350.475 851.324 350.913 849.968 350.913C848.612 350.913 847.484 350.475 846.584 349.599C845.696 348.723 845.252 347.571 845.252 346.143C845.252 344.715 845.696 343.569 846.584 342.705ZM852.218 343.659C851.63 343.047 850.88 342.741 849.968 342.741C849.056 342.741 848.3 343.047 847.7 343.659C847.112 344.271 846.818 345.099 846.818 346.143C846.818 347.187 847.112 348.021 847.7 348.645C848.3 349.257 849.056 349.563 849.968 349.563C850.88 349.563 851.63 349.257 852.218 348.645C852.818 348.021 853.118 347.187 853.118 346.143C853.118 345.099 852.818 344.271 852.218 343.659ZM860.045 341.409C861.029 341.397 861.809 341.649 862.385 342.165C862.961 342.669 863.303 343.335 863.411 344.163L861.863 344.253C861.743 343.233 861.119 342.729 859.991 342.741C859.427 342.729 858.995 342.843 858.695 343.083C858.395 343.323 858.245 343.653 858.245 344.073C858.245 344.181 858.251 344.277 858.263 344.361C858.287 344.445 858.323 344.523 858.371 344.595C858.419 344.667 858.461 344.733 858.497 344.793C858.545 344.841 858.617 344.889 858.713 344.937C858.821 344.985 858.905 345.027 858.965 345.063C859.037 345.087 859.139 345.117 859.271 345.153C859.415 345.189 859.529 345.219 859.613 345.243C859.697 345.255 859.829 345.285 860.009 345.333C860.189 345.369 860.327 345.399 860.423 345.423C861.515 345.687 862.319 346.005 862.835 346.377C863.351 346.749 863.609 347.313 863.609 348.069C863.609 348.969 863.297 349.671 862.673 350.175C862.049 350.667 861.203 350.913 860.135 350.913C859.103 350.913 858.269 350.673 857.633 350.193C856.997 349.701 856.619 349.011 856.499 348.123L858.047 348.015C858.191 349.047 858.899 349.563 860.171 349.563C860.747 349.563 861.203 349.449 861.539 349.221C861.887 348.981 862.061 348.639 862.061 348.195C862.061 347.751 861.905 347.439 861.593 347.259C861.293 347.067 860.693 346.863 859.793 346.647C859.349 346.539 859.007 346.455 858.767 346.395C858.527 346.323 858.251 346.221 857.939 346.089C857.627 345.957 857.393 345.813 857.237 345.657C857.093 345.489 856.961 345.273 856.841 345.009C856.733 344.745 856.679 344.439 856.679 344.091C856.679 343.275 856.973 342.621 857.561 342.129C858.161 341.637 858.989 341.397 860.045 341.409Z" fill="#083B51"/>
</svg>
